M48
METRIC,LZ,000.000
;FILE_FORMAT=3:3
;TYPE=PLATED
;Layer: PTH_Through
;EasyEDA v6.5.42, 2024-06-19 11:27:11
;522c4fd81f94443e96934e03537c14a0,77e46d308c0345a887be20b164797668,10
;Gerber Generator version 0.2
;Holesize 1 = 0.800 mm
T01C0.800
;Holesize 2 = 0.901 mm
T02C0.901
;Holesize 3 = 1.200 mm
T03C1.200
;Holesize 4 = 1.403 mm
T04C1.403
;Holesize 5 = 3.556 mm
T05C3.556
%
G05
G90
T01
X022860Y050743
X022860Y053143
X075513Y029858G85X075513Y034658
X005513Y029858G85X005513Y034658
X047986Y064897
X058186Y064897
X035921Y064897
X046121Y064897
X023729Y064897
X033929Y064897
X045789Y069850
X048191Y069850
X041841Y069850
X039439Y069850
X035364Y069850
X032962Y069850
T02
X059436Y060198
X056896Y044958
X051815Y044958
X046735Y044958
X041655Y044958
X036575Y044958
X031495Y044958
X026415Y044958
X023876Y060198
X028957Y060198
X034037Y060198
X039117Y060198
X044197Y060198
X049277Y060198
X054356Y060198
X056896Y060198
X051816Y060198
X046736Y060198
X041656Y060198
X036576Y060198
X031496Y060198
X026416Y060198
X023876Y044958
X028956Y044958
X034036Y044958
X039116Y044958
X044196Y044958
X049276Y044958
X054356Y044958
X059436Y044958
T03
X037717Y049693
X043817Y049693
X037717Y054193
X043817Y054193
X044704Y018669
X037084Y018669
X034036Y018669
X047752Y018669
X047752Y-004191
X034036Y-004191
T04
X012319Y052146
X012319Y047168
T05
X010287Y015240
X071374Y015367
X071120Y048387
M30
