G04 Layer: TopLayer*
G04 EasyEDA v6.5.42, 2024-06-19 11:27:11*
G04 522c4fd81f94443e96934e03537c14a0,77e46d308c0345a887be20b164797668,10*
G04 Gerber Generator version 0.2*
G04 Scale: 100 percent, Rotated: No, Reflected: No *
G04 Dimensions in millimeters *
G04 leading zeros omitted , absolute positions ,4 integer and 5 decimal *
%FSLAX45Y45*%
%MOMM*%

%AMMACRO1*21,1,$1,$2,0,0,$3*%
%ADD10C,0.2540*%
%ADD11C,0.7000*%
%ADD12C,7.0000*%
%ADD13MACRO1,4.285X2.38X0.0000*%
%ADD14C,1.5000*%
%ADD15C,1.8000*%
%ADD16O,1.7999964X6.599986800000001*%
%ADD17R,1.6000X1.6000*%
%ADD18C,1.6000*%
%ADD19C,1.4000*%
%ADD20C,1.4000*%
%ADD21R,2.5000X2.5000*%

%LPD*%
D10*
X4927605Y6019797D02*
G01*
X4675637Y5767829D01*
X2739547Y5767829D01*
X2286005Y5314287D01*
X5435605Y6019797D02*
G01*
X4835098Y5419290D01*
X4381708Y5419290D01*
X5818611Y6489697D02*
G01*
X5143505Y6489697D01*
X4673605Y6019797D01*
X3392911Y6489697D02*
G01*
X3713942Y6168666D01*
X4016735Y6168666D01*
X4165605Y6019797D01*
X3296163Y6984997D02*
G01*
X2800863Y6489697D01*
X2372898Y6489697D01*
D11*
X4184147Y6984997D02*
G01*
X4578863Y6984997D01*
X4184147Y6984997D02*
G01*
X4050847Y7118296D01*
X3669746Y7118296D01*
X3536447Y6984997D01*
X3536447Y6984997D02*
G01*
X2782219Y6230769D01*
X2408026Y6230769D01*
X2151486Y5974229D01*
X2151486Y5208826D01*
X2286005Y5074307D01*
X5689605Y4495797D02*
G01*
X5439465Y4745936D01*
X3995069Y4745936D01*
X3771701Y4969304D01*
X3771701Y4969304D02*
G01*
X3666698Y5074307D01*
X2286005Y5074307D01*
X3708405Y1866897D02*
G01*
X3708405Y2042106D01*
X1231905Y4716777D02*
G01*
X1496369Y4716777D01*
X1496369Y3225797D02*
G01*
X1496369Y4716777D01*
X551312Y3225797D02*
G01*
X1496369Y3225797D01*
X1496369Y3225797D02*
G01*
X2524714Y3225797D01*
X3708405Y2042106D01*
X4470405Y1866897D02*
G01*
X4470405Y2042106D01*
X4470405Y2730345D02*
G01*
X4470405Y2042106D01*
X1496369Y5214617D02*
G01*
X1496369Y5193459D01*
X3959484Y2730345D01*
X4470405Y2730345D01*
X4470405Y2730345D02*
G01*
X7055845Y2730345D01*
X7551298Y3225797D01*
X1231905Y5214617D02*
G01*
X1496369Y5214617D01*
D12*
G01*
X1028700Y1524000D03*
G01*
X7137400Y1536700D03*
G01*
X7112000Y4838700D03*
D13*
G01*
X1231900Y5214619D03*
G01*
X1231900Y4716780D03*
D14*
G01*
X2286000Y5074310D03*
G01*
X2286000Y5314289D03*
D15*
G01*
X3771696Y4969306D03*
G01*
X4381703Y4969306D03*
G01*
X3771696Y5419293D03*
G01*
X4381703Y5419293D03*
D16*
G01*
X7551293Y3225800D03*
G01*
X551306Y3225800D03*
D17*
G01*
X5943600Y6019800D03*
D18*
G01*
X5689600Y4495800D03*
G01*
X5181600Y4495800D03*
G01*
X4673600Y4495800D03*
G01*
X4165600Y4495800D03*
G01*
X3657600Y4495800D03*
G01*
X3149600Y4495800D03*
G01*
X2641600Y4495800D03*
G01*
X2387600Y6019800D03*
G01*
X2895600Y6019800D03*
G01*
X3403600Y6019800D03*
G01*
X3911600Y6019800D03*
G01*
X4419600Y6019800D03*
G01*
X4927600Y6019800D03*
G01*
X5435600Y6019800D03*
G01*
X5689600Y6019800D03*
G01*
X5181600Y6019800D03*
G01*
X4673600Y6019800D03*
G01*
X4165600Y6019800D03*
G01*
X3657600Y6019800D03*
G01*
X3149600Y6019800D03*
G01*
X2641600Y6019800D03*
G01*
X2387600Y4495800D03*
G01*
X2895600Y4495800D03*
G01*
X3403600Y4495800D03*
G01*
X3911600Y4495800D03*
G01*
X4419600Y4495800D03*
G01*
X4927600Y4495800D03*
G01*
X5435600Y4495800D03*
D17*
G01*
X5943600Y4495800D03*
D19*
G01*
X4798593Y6489700D03*
G01*
X5818606Y6489700D03*
G01*
X3592093Y6489700D03*
G01*
X4612106Y6489700D03*
G01*
X2372893Y6489700D03*
G01*
X3392906Y6489700D03*
D20*
G01*
X4578858Y6985000D03*
G01*
X4819141Y6985000D03*
G01*
X4184141Y6985000D03*
G01*
X3943858Y6985000D03*
G01*
X3536441Y6985000D03*
G01*
X3296158Y6985000D03*
D21*
G01*
X4470400Y1866900D03*
G01*
X3708400Y1866900D03*
G01*
X3403600Y1866900D03*
G01*
X4775200Y1866900D03*
G01*
X4775200Y-419100D03*
G01*
X3403600Y-419100D03*
M02*
