G04 Layer: BottomSilkscreenLayer*
G04 EasyEDA v6.5.42, 2024-06-19 11:27:11*
G04 522c4fd81f94443e96934e03537c14a0,77e46d308c0345a887be20b164797668,10*
G04 Gerber Generator version 0.2*
G04 Scale: 100 percent, Rotated: No, Reflected: No *
G04 Dimensions in millimeters *
G04 leading zeros omitted , absolute positions ,4 integer and 5 decimal *
%FSLAX45Y45*%
%MOMM*%

%ADD10C,0.2032*%
%ADD11C,0.1524*%
%ADD12C,0.2581*%
%ADD13C,0.2540*%

%LPD*%
G36*
X2419146Y1455369D02*
G01*
X2406243Y1449222D01*
X2395728Y1438554D01*
X2389987Y1427124D01*
X2389553Y1036116D01*
X2467051Y1036116D01*
X2467051Y1129080D01*
X2469896Y1144371D01*
X2471572Y1151128D01*
X2476906Y1164234D01*
X2486456Y1178915D01*
X2502865Y1195679D01*
X2518257Y1205839D01*
X2524963Y1208989D01*
X2530703Y1211224D01*
X2537409Y1213002D01*
X2549855Y1215796D01*
X2577592Y1215542D01*
X2589123Y1213053D01*
X2595778Y1211224D01*
X2601518Y1208989D01*
X2608224Y1205890D01*
X2622600Y1196441D01*
X2638450Y1180795D01*
X2646781Y1168349D01*
X2650490Y1161643D01*
X2654452Y1151128D01*
X2656433Y1143457D01*
X2658516Y1133246D01*
X2658516Y1029919D01*
X2656382Y1020775D01*
X2652369Y1007364D01*
X2645156Y992987D01*
X2635707Y980490D01*
X2623566Y968806D01*
X2610154Y959662D01*
X2596743Y953566D01*
X2579522Y948893D01*
X2546959Y948944D01*
X2536444Y951484D01*
X2524963Y955294D01*
X2512517Y962050D01*
X2499817Y971397D01*
X2486507Y985469D01*
X2480767Y993952D01*
X2474722Y1005027D01*
X2469743Y1019810D01*
X2467051Y1036116D01*
X2389553Y1036116D01*
X2389428Y908608D01*
X2391308Y896467D01*
X2395423Y888492D01*
X2402078Y880364D01*
X2410764Y874369D01*
X2420569Y870762D01*
X2436825Y870762D01*
X2449931Y874928D01*
X2459329Y883412D01*
X2465120Y895502D01*
X2465120Y898550D01*
X2467305Y898550D01*
X2479954Y890981D01*
X2491435Y885393D01*
X2502916Y880465D01*
X2514447Y876757D01*
X2523032Y874725D01*
X2532634Y872794D01*
X2545283Y870762D01*
X2580640Y870762D01*
X2598674Y873709D01*
X2607310Y875436D01*
X2620670Y879144D01*
X2636012Y885291D01*
X2649423Y892251D01*
X2666644Y903630D01*
X2681986Y916584D01*
X2695346Y930706D01*
X2700172Y936498D01*
X2706014Y944067D01*
X2714040Y955954D01*
X2714040Y956970D01*
X2719425Y966114D01*
X2726385Y982421D01*
X2729230Y991057D01*
X2732938Y1005433D01*
X2735072Y1018844D01*
X2737002Y1036218D01*
X2737002Y1127760D01*
X2735072Y1146302D01*
X2733141Y1157833D01*
X2730957Y1167384D01*
X2726588Y1180947D01*
X2721305Y1194206D01*
X2716225Y1203807D01*
X2711958Y1211326D01*
X2704134Y1222959D01*
X2693162Y1236421D01*
X2675280Y1253794D01*
X2665679Y1261465D01*
X2650845Y1271422D01*
X2634081Y1279855D01*
X2627376Y1282750D01*
X2610154Y1288338D01*
X2600604Y1290472D01*
X2589123Y1292402D01*
X2571648Y1294384D01*
X2554630Y1294333D01*
X2531668Y1291437D01*
X2515362Y1287932D01*
X2500071Y1282801D01*
X2478024Y1272336D01*
X2468473Y1266647D01*
X2467051Y1266596D01*
X2467051Y1424635D01*
X2462987Y1435760D01*
X2458059Y1442466D01*
X2450947Y1449273D01*
X2441651Y1453692D01*
X2438806Y1455267D01*
G37*
G36*
X2281783Y1417066D02*
G01*
X2259787Y1416558D01*
X2246680Y1410360D01*
X2235860Y1399336D01*
X2230272Y1388922D01*
X2227783Y1377289D01*
X2227681Y1369212D01*
X2230526Y1358442D01*
X2235555Y1348079D01*
X2247747Y1336700D01*
X2260752Y1330401D01*
X2282748Y1330401D01*
X2297277Y1337259D01*
X2307691Y1347825D01*
X2312974Y1357579D01*
X2315768Y1368298D01*
X2315768Y1379220D01*
X2313178Y1388770D01*
X2309114Y1397711D01*
X2300071Y1407668D01*
X2292299Y1412951D01*
G37*
G36*
X1862836Y1294688D02*
G01*
X1850034Y1292199D01*
X1841398Y1288237D01*
X1829866Y1276654D01*
X1823669Y1263751D01*
X1823669Y1081633D01*
X1901698Y1081633D01*
X1901698Y1134821D01*
X1904339Y1146302D01*
X1908149Y1157833D01*
X1914093Y1169314D01*
X1919833Y1177950D01*
X1936800Y1195527D01*
X1952447Y1205839D01*
X1961083Y1209802D01*
X1970125Y1212900D01*
X1984044Y1215796D01*
X2012797Y1215542D01*
X2029053Y1211732D01*
X2044598Y1204518D01*
X2056790Y1196289D01*
X2070811Y1182725D01*
X2078228Y1173124D01*
X2085797Y1158798D01*
X2089607Y1147267D01*
X2091689Y1138631D01*
X2093671Y1120089D01*
X2093671Y1045260D01*
X2091689Y1025550D01*
X2089607Y1016914D01*
X2085746Y1005433D01*
X2081885Y997762D01*
X2073198Y984351D01*
X2056790Y967994D01*
X2043023Y958951D01*
X2032660Y954227D01*
X2024278Y951534D01*
X2012797Y948893D01*
X1980234Y948893D01*
X1970633Y951484D01*
X1959152Y955294D01*
X1944776Y963066D01*
X1934260Y971194D01*
X1920646Y985316D01*
X1912162Y998728D01*
X1906016Y1012139D01*
X1901748Y1028446D01*
X1901698Y1081633D01*
X1823669Y1081633D01*
X1823669Y900582D01*
X1825599Y899414D01*
X1825599Y895858D01*
X1829917Y887831D01*
X1836318Y880313D01*
X1845005Y874369D01*
X1854758Y870762D01*
X1872030Y870813D01*
X1880412Y873709D01*
X1886407Y876757D01*
X1894078Y884783D01*
X1898345Y893013D01*
X1898345Y895350D01*
X1900936Y898855D01*
X1915109Y890320D01*
X1931416Y882548D01*
X1948637Y876757D01*
X1962048Y873607D01*
X1980031Y870762D01*
X2015439Y870762D01*
X2028088Y872794D01*
X2038604Y874776D01*
X2052980Y878738D01*
X2068322Y884478D01*
X2083612Y892251D01*
X2100529Y903528D01*
X2104491Y906729D01*
X2119020Y919378D01*
X2128621Y929741D01*
X2137410Y940257D01*
X2148890Y957529D01*
X2158441Y976680D01*
X2159558Y980490D01*
X2163775Y992022D01*
X2166162Y1001572D01*
X2168296Y1012139D01*
X2170277Y1024737D01*
X2170277Y1140460D01*
X2166315Y1161643D01*
X2164283Y1170279D01*
X2160574Y1181760D01*
X2152650Y1199997D01*
X2142388Y1217015D01*
X2131517Y1231595D01*
X2113280Y1250492D01*
X2099157Y1261922D01*
X2085543Y1271117D01*
X2071166Y1278686D01*
X2057907Y1283970D01*
X2044344Y1288338D01*
X2034793Y1290421D01*
X2022348Y1292504D01*
X2008936Y1294130D01*
X1988820Y1294384D01*
X1972564Y1292402D01*
X1959152Y1290269D01*
X1942896Y1286002D01*
X1930450Y1281226D01*
X1913229Y1272997D01*
X1900834Y1265478D01*
X1898345Y1268882D01*
X1898345Y1271320D01*
X1893366Y1280464D01*
X1886712Y1287424D01*
X1876806Y1292250D01*
G37*
G36*
X3362655Y1294384D02*
G01*
X3346348Y1292402D01*
X3332987Y1290269D01*
X3318611Y1286611D01*
X3307130Y1282700D01*
X3286048Y1272438D01*
X3277463Y1267307D01*
X3271672Y1263345D01*
X3252571Y1247648D01*
X3240125Y1234490D01*
X3232810Y1225854D01*
X3219907Y1206652D01*
X3210102Y1186586D01*
X3204413Y1169314D01*
X3200501Y1151128D01*
X3198469Y1137158D01*
X3198469Y902716D01*
X3200552Y896162D01*
X3204616Y887831D01*
X3211830Y879602D01*
X3220974Y873760D01*
X3230321Y870610D01*
X3247745Y871270D01*
X3258312Y876198D01*
X3269132Y886104D01*
X3275533Y899058D01*
X3276650Y1137666D01*
X3279597Y1148232D01*
X3282797Y1157833D01*
X3286963Y1166418D01*
X3296158Y1180287D01*
X3307842Y1192834D01*
X3320542Y1202385D01*
X3334867Y1209649D01*
X3348278Y1213713D01*
X3357422Y1215796D01*
X3386074Y1215796D01*
X3395218Y1213713D01*
X3408578Y1209598D01*
X3419906Y1204163D01*
X3431438Y1196340D01*
X3446526Y1181862D01*
X3456787Y1166418D01*
X3462324Y1153972D01*
X3464458Y1146302D01*
X3466896Y1138631D01*
X3468065Y900023D01*
X3470859Y893318D01*
X3473450Y888492D01*
X3480054Y880364D01*
X3488740Y874369D01*
X3498545Y870762D01*
X3515258Y870762D01*
X3520592Y872947D01*
X3529228Y877011D01*
X3538778Y886663D01*
X3542944Y895197D01*
X3545027Y901750D01*
X3545027Y1128268D01*
X3547008Y1139596D01*
X3549192Y1150162D01*
X3556101Y1166418D01*
X3564483Y1178915D01*
X3573272Y1189278D01*
X3589121Y1202080D01*
X3604869Y1209852D01*
X3613912Y1212900D01*
X3627831Y1215796D01*
X3654653Y1215796D01*
X3667099Y1213002D01*
X3673805Y1211224D01*
X3679494Y1208989D01*
X3686251Y1205839D01*
X3701542Y1195730D01*
X3717137Y1179880D01*
X3726586Y1165504D01*
X3730498Y1156868D01*
X3733596Y1147775D01*
X3736492Y1133856D01*
X3736492Y907287D01*
X3738524Y897128D01*
X3743096Y887171D01*
X3753510Y876909D01*
X3764534Y871829D01*
X3767226Y870762D01*
X3783126Y870762D01*
X3789629Y872845D01*
X3797757Y876808D01*
X3808069Y887679D01*
X3812387Y897128D01*
X3814927Y907694D01*
X3814978Y1254048D01*
X3812235Y1264615D01*
X3808831Y1271879D01*
X3798265Y1282547D01*
X3785514Y1288643D01*
X3766261Y1288643D01*
X3760927Y1286459D01*
X3752646Y1282496D01*
X3742232Y1271270D01*
X3742182Y1268984D01*
X3738879Y1264666D01*
X3721658Y1274826D01*
X3704437Y1282750D01*
X3686251Y1288491D01*
X3678580Y1290472D01*
X3666134Y1292453D01*
X3651758Y1294130D01*
X3632962Y1294384D01*
X3614420Y1292402D01*
X3601974Y1290472D01*
X3586683Y1286510D01*
X3572306Y1281226D01*
X3555085Y1272997D01*
X3535934Y1260144D01*
X3519678Y1245870D01*
X3506470Y1231087D01*
X3489451Y1249222D01*
X3474669Y1261516D01*
X3456482Y1273505D01*
X3437128Y1282903D01*
X3434334Y1282903D01*
X3432556Y1284427D01*
X3417214Y1288796D01*
X3410508Y1290472D01*
X3398062Y1292453D01*
X3380689Y1294384D01*
G37*
G36*
X2954223Y1292453D02*
G01*
X2928010Y1288542D01*
X2920339Y1286560D01*
X2906928Y1282496D01*
X2888742Y1274826D01*
X2872486Y1265478D01*
X2858668Y1255115D01*
X2842818Y1240891D01*
X2831287Y1227074D01*
X2829204Y1224838D01*
X2817520Y1207465D01*
X2808986Y1190396D01*
X2804109Y1178915D01*
X2800096Y1165504D01*
X2798419Y1158798D01*
X2796235Y1147267D01*
X2794457Y1140358D01*
X2794457Y1120952D01*
X2871978Y1120952D01*
X2873095Y1134821D01*
X2877007Y1151128D01*
X2884220Y1166672D01*
X2892450Y1178915D01*
X2907893Y1194409D01*
X2919628Y1202283D01*
X2930855Y1207922D01*
X2940456Y1211224D01*
X2952902Y1213866D01*
X2984500Y1213713D01*
X2989275Y1212189D01*
X2999790Y1209802D01*
X3015335Y1202639D01*
X3027578Y1194409D01*
X3043072Y1178915D01*
X3052572Y1164539D01*
X3056534Y1155903D01*
X3060344Y1144371D01*
X3062681Y1133856D01*
X3062020Y1120444D01*
X2876296Y1119886D01*
X2871978Y1120952D01*
X2794457Y1120952D01*
X2794457Y1108557D01*
X2797149Y1098397D01*
X2800299Y1089253D01*
X2806242Y1078280D01*
X2817317Y1063904D01*
X2825546Y1057097D01*
X2834182Y1051306D01*
X2841599Y1047902D01*
X2847594Y1046022D01*
X2860040Y1043279D01*
X3004769Y1043279D01*
X3062528Y1042009D01*
X3062528Y1027684D01*
X3058464Y1012139D01*
X3057042Y1008329D01*
X3048609Y991311D01*
X3036620Y976680D01*
X3032353Y973124D01*
X3025648Y967028D01*
X3016910Y961034D01*
X3005531Y955344D01*
X2994050Y951484D01*
X2984500Y948893D01*
X2950006Y948893D01*
X2940456Y951484D01*
X2928975Y955344D01*
X2917139Y961136D01*
X2905048Y970229D01*
X2894482Y981456D01*
X2888742Y989025D01*
X2881274Y997305D01*
X2869336Y1003046D01*
X2852521Y1003046D01*
X2840888Y998931D01*
X2830982Y992428D01*
X2826004Y985875D01*
X2821482Y976680D01*
X2818993Y963726D01*
X2821584Y950823D01*
X2826359Y942187D01*
X2834640Y931316D01*
X2847238Y917549D01*
X2861767Y904341D01*
X2880156Y892048D01*
X2893517Y885342D01*
X2905048Y880465D01*
X2917494Y876655D01*
X2925114Y874776D01*
X2935681Y872794D01*
X2948330Y870762D01*
X2984652Y870762D01*
X3002686Y873506D01*
X3017012Y876757D01*
X3028543Y880465D01*
X3046730Y888441D01*
X3062071Y897280D01*
X3077362Y908507D01*
X3101340Y932586D01*
X3106623Y938885D01*
X3119729Y958494D01*
X3129381Y978611D01*
X3135376Y997762D01*
X3137103Y1004468D01*
X3141014Y1030732D01*
X3141014Y1133703D01*
X3137103Y1158798D01*
X3135122Y1166418D01*
X3129381Y1184656D01*
X3119983Y1204163D01*
X3106724Y1223975D01*
X3092450Y1240231D01*
X3081121Y1250797D01*
X3075381Y1255572D01*
X3064916Y1263497D01*
X3053181Y1271016D01*
X3039059Y1277874D01*
X3032353Y1280769D01*
X3021838Y1284528D01*
X3015132Y1286510D01*
X3006496Y1288491D01*
X2995980Y1290472D01*
X2983534Y1292199D01*
G37*
G36*
X2264359Y1292453D02*
G01*
X2257856Y1290370D01*
X2249220Y1286256D01*
X2239568Y1276654D01*
X2233930Y1265174D01*
X2233422Y901242D01*
X2236419Y892352D01*
X2242312Y883208D01*
X2249678Y876858D01*
X2257856Y872947D01*
X2263190Y870762D01*
X2279904Y870762D01*
X2289708Y874369D01*
X2298446Y880364D01*
X2305202Y888644D01*
X2310028Y899566D01*
X2309977Y1263243D01*
X2307590Y1269949D01*
X2304084Y1276654D01*
X2294229Y1286256D01*
X2285593Y1290421D01*
X2279853Y1292301D01*
G37*
G36*
X3125368Y796036D02*
G01*
X3118510Y793902D01*
X3108198Y788822D01*
X3099358Y780135D01*
X3095294Y771601D01*
X3093161Y766216D01*
X3093161Y607212D01*
X3090722Y607212D01*
X3086912Y609854D01*
X3068726Y619353D01*
X3055315Y624636D01*
X3040989Y629056D01*
X3019907Y633577D01*
X2972054Y633526D01*
X2961538Y631139D01*
X2950972Y629005D01*
X2938526Y625348D01*
X2935224Y623519D01*
X2932938Y623519D01*
X2909824Y612190D01*
X2894482Y602183D01*
X2893517Y600964D01*
X2885897Y595325D01*
X2866999Y577037D01*
X2856026Y563626D01*
X2844495Y546354D01*
X2834843Y526237D01*
X2829052Y508050D01*
X2827172Y500380D01*
X2825191Y489813D01*
X2823159Y473506D01*
X2901188Y473506D01*
X2903778Y486003D01*
X2907690Y497484D01*
X2911602Y506120D01*
X2921152Y520496D01*
X2935681Y534924D01*
X2940456Y538734D01*
X2946196Y542696D01*
X2956712Y548386D01*
X2967278Y552348D01*
X2974898Y554329D01*
X2986532Y556412D01*
X3009392Y556209D01*
X3026613Y552450D01*
X3032353Y550367D01*
X3046120Y543966D01*
X3061055Y532739D01*
X3071774Y521462D01*
X3080816Y508203D01*
X3085236Y499414D01*
X3089097Y487883D01*
X3091180Y479298D01*
X3093161Y463143D01*
X3093110Y381508D01*
X3090316Y361391D01*
X3087928Y352755D01*
X3085693Y347014D01*
X3080715Y336346D01*
X3071114Y322630D01*
X3057296Y308914D01*
X3043834Y299923D01*
X3032861Y294640D01*
X3026613Y292709D01*
X3019907Y290931D01*
X3001873Y288086D01*
X2990240Y288137D01*
X2973933Y290830D01*
X2960979Y294640D01*
X2950006Y299923D01*
X2938526Y307644D01*
X2931820Y313791D01*
X2927604Y317296D01*
X2915056Y332536D01*
X2905709Y351790D01*
X2901289Y369062D01*
X2901188Y473506D01*
X2823159Y473506D01*
X2823159Y369214D01*
X2827223Y344119D01*
X2831541Y327863D01*
X2837738Y312521D01*
X2842818Y301955D01*
X2852267Y286156D01*
X2865577Y269392D01*
X2883966Y251155D01*
X2891637Y245414D01*
X2892602Y244297D01*
X2909824Y232765D01*
X2923235Y225958D01*
X2932023Y222046D01*
X2946196Y217424D01*
X2953867Y215341D01*
X2975051Y211429D01*
X3018332Y211429D01*
X3038094Y215341D01*
X3046730Y217373D01*
X3054400Y219862D01*
X3064916Y223977D01*
X3083102Y232765D01*
X3091078Y238252D01*
X3094177Y238252D01*
X3096158Y232968D01*
X3100324Y224586D01*
X3107690Y216966D01*
X3119932Y211429D01*
X3140913Y211429D01*
X3152952Y216509D01*
X3163316Y226263D01*
X3169716Y240029D01*
X3169716Y766216D01*
X3167583Y771601D01*
X3163620Y779830D01*
X3154781Y788822D01*
X3145332Y793597D01*
X3137662Y795782D01*
G37*
G36*
X3776979Y794105D02*
G01*
X3770477Y792022D01*
X3761994Y787857D01*
X3751986Y778764D01*
X3745585Y765810D01*
X3744569Y366166D01*
X3738168Y346151D01*
X3730802Y332232D01*
X3722319Y321056D01*
X3708095Y307543D01*
X3699611Y301752D01*
X3690061Y296875D01*
X3683355Y294030D01*
X3677615Y292100D01*
X3668979Y290118D01*
X3660394Y288798D01*
X3639210Y287528D01*
X3627831Y281940D01*
X3617671Y271780D01*
X3612032Y259384D01*
X3612032Y240792D01*
X3614369Y233934D01*
X3620719Y224028D01*
X3628999Y216408D01*
X3640836Y211429D01*
X3671062Y211429D01*
X3692906Y215442D01*
X3706317Y219303D01*
X3721658Y225196D01*
X3735730Y232613D01*
X3749395Y241350D01*
X3765702Y254355D01*
X3782060Y271322D01*
X3789781Y280873D01*
X3801364Y298196D01*
X3808323Y312013D01*
X3814267Y326898D01*
X3818026Y340309D01*
X3822039Y360426D01*
X3822700Y763930D01*
X3816502Y777951D01*
X3807510Y787095D01*
X3799179Y791464D01*
X3791559Y793902D01*
G37*
G36*
X3431590Y633831D02*
G01*
X3393287Y633272D01*
X3374136Y629208D01*
X3366465Y627126D01*
X3360724Y625246D01*
X3350209Y621284D01*
X3332022Y612343D01*
X3322523Y606247D01*
X3320084Y606247D01*
X3318814Y611530D01*
X3314446Y620268D01*
X3306318Y628396D01*
X3295650Y633425D01*
X3272637Y633476D01*
X3261867Y628497D01*
X3253841Y621233D01*
X3247999Y612749D01*
X3244392Y602945D01*
X3244392Y369062D01*
X3322421Y369062D01*
X3322421Y476402D01*
X3325012Y486918D01*
X3328924Y498449D01*
X3335121Y510895D01*
X3343859Y522528D01*
X3358896Y536854D01*
X3367481Y542798D01*
X3376320Y547725D01*
X3386582Y551891D01*
X3393287Y553669D01*
X3407664Y556412D01*
X3429660Y556158D01*
X3442106Y553872D01*
X3453587Y550316D01*
X3468928Y542442D01*
X3480409Y534060D01*
X3492144Y522122D01*
X3500780Y509930D01*
X3506520Y498449D01*
X3510330Y486918D01*
X3512972Y475437D01*
X3512972Y369062D01*
X3510279Y357581D01*
X3507587Y349148D01*
X3502812Y338683D01*
X3492195Y322681D01*
X3476548Y307644D01*
X3467963Y301752D01*
X3458362Y296875D01*
X3449777Y293319D01*
X3441141Y290931D01*
X3423107Y288086D01*
X3411626Y288086D01*
X3399028Y290017D01*
X3388512Y292252D01*
X3372205Y299161D01*
X3357879Y308660D01*
X3342335Y324002D01*
X3332835Y338378D01*
X3327806Y348945D01*
X3325063Y357581D01*
X3322421Y369062D01*
X3244392Y369062D01*
X3244392Y242366D01*
X3246475Y235864D01*
X3250641Y227279D01*
X3260293Y217474D01*
X3272942Y211429D01*
X3293719Y211429D01*
X3303930Y215138D01*
X3310585Y220217D01*
X3316884Y228904D01*
X3320237Y238252D01*
X3323488Y238252D01*
X3325317Y236524D01*
X3332987Y232156D01*
X3346348Y225247D01*
X3361690Y219252D01*
X3375101Y215442D01*
X3395827Y211429D01*
X3439414Y211429D01*
X3450742Y213360D01*
X3460292Y215341D01*
X3467963Y217424D01*
X3485184Y223062D01*
X3503371Y232156D01*
X3517747Y241350D01*
X3534003Y254355D01*
X3550361Y271322D01*
X3558133Y280873D01*
X3569512Y298145D01*
X3577285Y313486D01*
X3583178Y328828D01*
X3586226Y340309D01*
X3588207Y349910D01*
X3590950Y367944D01*
X3590950Y477215D01*
X3586987Y502259D01*
X3585413Y508050D01*
X3581298Y521462D01*
X3576472Y532942D01*
X3565804Y553415D01*
X3550970Y573176D01*
X3534003Y590448D01*
X3519678Y602081D01*
X3505301Y611733D01*
X3490925Y619302D01*
X3477514Y624636D01*
X3469894Y627075D01*
X3462223Y629158D01*
X3453587Y631037D01*
X3442106Y633120D01*
G37*
G36*
X2475738Y196088D02*
G01*
X2470404Y193903D01*
X2461818Y189839D01*
X2452827Y180746D01*
X2448102Y170688D01*
X2445969Y163830D01*
X2446020Y153416D01*
X2448610Y143510D01*
X2453132Y134518D01*
X2462479Y125272D01*
X2474976Y119380D01*
X2745333Y119380D01*
X2758541Y125882D01*
X2768295Y136245D01*
X2771241Y142900D01*
X2773680Y149250D01*
X2773629Y168046D01*
X2767533Y180746D01*
X2758440Y189839D01*
X2749956Y193903D01*
X2745130Y195935D01*
G37*
G36*
X5123891Y1546910D02*
G01*
X5120436Y1541678D01*
X5115966Y1528826D01*
X5114188Y1522933D01*
X5110124Y1511249D01*
X5108295Y1507337D01*
X5104231Y1495602D01*
X5102504Y1489710D01*
X5095748Y1470202D01*
X5085943Y1437944D01*
X5072075Y1390040D01*
X5072126Y1387246D01*
X5068417Y1375359D01*
X5054549Y1319174D01*
X5048758Y1293317D01*
X5046573Y1284478D01*
X5039918Y1252982D01*
X5036921Y1237589D01*
X5033213Y1220012D01*
X5028996Y1195578D01*
X5025440Y1177950D01*
X5013706Y1103680D01*
X5011724Y1087069D01*
X5005832Y1044092D01*
X5003800Y1022603D01*
X4998821Y976934D01*
X4996942Y943711D01*
X4995011Y930706D01*
X4993132Y878941D01*
X4990642Y854506D01*
X4990642Y820267D01*
X5146090Y820267D01*
X5150256Y904341D01*
X5152136Y931722D01*
X5156047Y976680D01*
X5162092Y1033322D01*
X5165801Y1058011D01*
X5165801Y1064615D01*
X5169611Y1086104D01*
X5171643Y1101750D01*
X5175605Y1126185D01*
X5177688Y1140815D01*
X5181447Y1157833D01*
X5181447Y1162964D01*
X5185206Y1179931D01*
X5189372Y1203401D01*
X5199176Y1248359D01*
X5201666Y1261313D01*
X5204714Y1273759D01*
X5209032Y1293317D01*
X5212689Y1304899D01*
X5212689Y1309014D01*
X5216347Y1320647D01*
X5218379Y1330452D01*
X5228386Y1367586D01*
X5231434Y1377340D01*
X5233416Y1379778D01*
X5238546Y1379524D01*
X5252212Y1378051D01*
X5267248Y1374902D01*
X5272684Y1374851D01*
X5288330Y1370990D01*
X5295747Y1370990D01*
X5312714Y1367231D01*
X5335168Y1363065D01*
X5378094Y1353261D01*
X5392369Y1350518D01*
X5394706Y1349095D01*
X5409336Y1345742D01*
X5423001Y1341932D01*
X5432755Y1339596D01*
X5501081Y1319174D01*
X5507228Y1316278D01*
X5510834Y1316177D01*
X5518658Y1312418D01*
X5521299Y1312367D01*
X5527446Y1309471D01*
X5536234Y1306626D01*
X5545023Y1303477D01*
X5548934Y1301648D01*
X5565546Y1295654D01*
X5580380Y1288897D01*
X5582767Y1288897D01*
X5587949Y1286103D01*
X5599074Y1281074D01*
X5601258Y1281074D01*
X5608472Y1277366D01*
X5658256Y1253540D01*
X5661202Y1251712D01*
X5668975Y1247952D01*
X5698286Y1231341D01*
X5704128Y1228293D01*
X5709970Y1224432D01*
X5720740Y1218031D01*
X5751982Y1197305D01*
X5760974Y1190701D01*
X5765342Y1187754D01*
X5778754Y1177544D01*
X5784291Y1172921D01*
X5794908Y1164945D01*
X5800953Y1159408D01*
X5825134Y1138174D01*
X5850534Y1112418D01*
X5868212Y1091996D01*
X5887618Y1067511D01*
X5893460Y1058722D01*
X5894527Y1057757D01*
X5907125Y1038199D01*
X5915609Y1024077D01*
X5925210Y1006957D01*
X5933236Y990346D01*
X5938621Y978611D01*
X5945632Y961999D01*
X5948781Y953211D01*
X5951575Y944422D01*
X5953506Y940511D01*
X5965139Y899464D01*
X5966409Y890676D01*
X5970117Y876096D01*
X5970117Y870813D01*
X5973826Y850595D01*
X5976112Y826160D01*
X5977788Y805637D01*
X5977788Y755802D01*
X5973826Y711809D01*
X5970117Y691591D01*
X5970117Y686308D01*
X5967069Y674674D01*
X5964377Y661009D01*
X5961583Y649274D01*
X5954471Y626770D01*
X5954471Y624128D01*
X5951677Y617982D01*
X5947562Y606247D01*
X5945479Y599440D01*
X5942787Y595579D01*
X5942787Y592785D01*
X5934252Y574040D01*
X5922213Y549605D01*
X5916422Y539800D01*
X5913475Y533958D01*
X5909665Y528066D01*
X5906719Y522884D01*
X5892292Y501497D01*
X5883808Y489966D01*
X5872378Y475335D01*
X5865164Y466598D01*
X5847689Y446989D01*
X5822238Y421487D01*
X5805220Y406247D01*
X5797854Y400405D01*
X5796838Y398932D01*
X5783173Y388467D01*
X5782208Y387197D01*
X5762498Y372414D01*
X5731865Y351434D01*
X5718251Y342849D01*
X5702147Y333146D01*
X5684621Y322986D01*
X5660186Y309727D01*
X5631891Y295757D01*
X5603595Y282752D01*
X5580329Y272542D01*
X5578398Y272542D01*
X5561076Y264718D01*
X5558993Y264718D01*
X5552846Y261924D01*
X5539994Y256895D01*
X5538470Y256895D01*
X5532323Y254050D01*
X5520639Y249936D01*
X5514746Y248208D01*
X5483555Y237540D01*
X5468874Y233375D01*
X5436412Y223723D01*
X5413248Y217627D01*
X5400751Y213867D01*
X5397652Y213918D01*
X5384952Y210159D01*
X5367375Y206044D01*
X5363921Y206095D01*
X5349798Y202336D01*
X5331256Y198323D01*
X5308803Y194208D01*
X5291886Y190449D01*
X5285384Y190398D01*
X5268772Y186588D01*
X5262575Y186537D01*
X5242763Y182626D01*
X5233416Y182626D01*
X5231434Y185064D01*
X5224373Y208534D01*
X5224373Y211886D01*
X5221325Y219608D01*
X5214518Y247599D01*
X5212435Y257403D01*
X5208778Y268986D01*
X5208778Y272592D01*
X5205018Y286715D01*
X5201615Y301345D01*
X5198059Y318973D01*
X5189270Y358089D01*
X5189270Y362864D01*
X5185562Y378561D01*
X5181244Y403961D01*
X5177688Y421538D01*
X5173522Y449884D01*
X5169712Y469950D01*
X5169712Y477621D01*
X5165801Y497433D01*
X5165801Y504393D01*
X5162092Y529082D01*
X5157876Y570128D01*
X5154980Y592328D01*
X5153050Y624840D01*
X5151221Y636574D01*
X5149189Y685444D01*
X5147106Y709879D01*
X5146090Y820267D01*
X4990642Y820267D01*
X4990642Y707898D01*
X4993132Y683463D01*
X4995011Y631698D01*
X4996942Y618693D01*
X4998821Y585470D01*
X5005832Y518312D01*
X5011724Y475335D01*
X5013706Y458724D01*
X5025440Y384403D01*
X5029149Y367436D01*
X5029149Y362305D01*
X5032908Y345338D01*
X5037937Y317957D01*
X5045659Y282295D01*
X5058562Y226110D01*
X5066131Y195834D01*
X5072126Y174447D01*
X5072126Y171856D01*
X5075732Y160629D01*
X5081778Y138125D01*
X5097272Y87325D01*
X5103368Y70662D01*
X5103368Y68072D01*
X5106162Y61925D01*
X5110276Y50190D01*
X5112054Y44348D01*
X5116068Y32613D01*
X5117846Y29464D01*
X5120132Y20878D01*
X5124145Y15290D01*
X5175097Y18491D01*
X5197551Y20320D01*
X5219039Y22402D01*
X5250230Y26365D01*
X5278577Y30226D01*
X5304891Y34239D01*
X5317591Y36982D01*
X5327345Y38100D01*
X5374233Y47599D01*
X5402529Y53797D01*
X5417159Y57404D01*
X5435701Y61620D01*
X5448401Y65125D01*
X5462219Y69240D01*
X5466080Y69240D01*
X5492292Y77266D01*
X5519623Y85140D01*
X5530088Y88798D01*
X5533288Y88849D01*
X5541111Y92659D01*
X5544718Y92710D01*
X5550865Y95605D01*
X5560618Y98348D01*
X5574284Y103581D01*
X5580176Y105308D01*
X5593842Y110439D01*
X5602630Y113233D01*
X5608472Y115976D01*
X5619191Y120294D01*
X5627573Y124002D01*
X5629960Y124053D01*
X5637733Y127812D01*
X5639409Y127863D01*
X5645556Y130657D01*
X5667044Y139801D01*
X5691428Y151180D01*
X5735370Y172872D01*
X5761228Y186690D01*
X5785154Y200406D01*
X5793536Y206095D01*
X5794806Y206095D01*
X5834938Y232410D01*
X5855411Y246583D01*
X5874562Y261162D01*
X5881776Y267157D01*
X5893866Y276453D01*
X5896406Y278892D01*
X5923737Y302158D01*
X5972556Y351180D01*
X5992063Y374497D01*
X6005576Y391820D01*
X6010198Y397154D01*
X6018936Y409854D01*
X6027674Y421538D01*
X6029147Y424535D01*
X6044285Y447395D01*
X6044285Y448716D01*
X6050889Y458724D01*
X6062624Y480212D01*
X6073749Y502666D01*
X6086144Y530047D01*
X6093307Y548589D01*
X6100013Y568147D01*
X6101892Y572058D01*
X6108852Y595528D01*
X6110884Y603351D01*
X6114542Y615188D01*
X6114542Y619099D01*
X6117488Y627786D01*
X6120536Y643382D01*
X6122517Y655116D01*
X6125362Y668070D01*
X6127343Y686409D01*
X6129274Y693724D01*
X6131102Y720598D01*
X6132322Y727964D01*
X6134100Y727964D01*
X6134100Y834440D01*
X6132322Y834440D01*
X6131102Y841806D01*
X6129274Y868680D01*
X6127343Y875995D01*
X6125362Y894283D01*
X6122517Y907287D01*
X6120536Y919022D01*
X6118301Y929741D01*
X6109970Y963930D01*
X6102858Y985113D01*
X6102858Y988110D01*
X6100013Y994257D01*
X6094171Y1012037D01*
X6084824Y1034796D01*
X6079540Y1047038D01*
X6058814Y1089050D01*
X6051956Y1101750D01*
X6048705Y1106627D01*
X6043777Y1115415D01*
X6019749Y1151585D01*
X5995670Y1183843D01*
X5990894Y1188974D01*
X5977382Y1205331D01*
X5966714Y1217066D01*
X5927648Y1256233D01*
X5908141Y1273759D01*
X5892495Y1286408D01*
X5890564Y1288643D01*
X5859068Y1312824D01*
X5854700Y1315770D01*
X5848197Y1320647D01*
X5838190Y1327505D01*
X5832703Y1331874D01*
X5830824Y1331874D01*
X5827318Y1335786D01*
X5825744Y1335786D01*
X5804306Y1350314D01*
X5791962Y1357376D01*
X5786729Y1360728D01*
X5752947Y1380185D01*
X5743143Y1385417D01*
X5695340Y1409293D01*
X5668822Y1421790D01*
X5667400Y1421790D01*
X5650788Y1429613D01*
X5648960Y1429613D01*
X5641695Y1433525D01*
X5639460Y1433525D01*
X5621832Y1441348D01*
X5619953Y1441348D01*
X5602325Y1449171D01*
X5599684Y1449222D01*
X5591860Y1453032D01*
X5588965Y1453134D01*
X5581142Y1456944D01*
X5578195Y1457045D01*
X5570423Y1460804D01*
X5567476Y1460957D01*
X5559653Y1464716D01*
X5556910Y1464818D01*
X5522569Y1476298D01*
X5480608Y1488541D01*
X5469382Y1492148D01*
X5466080Y1492148D01*
X5452313Y1496263D01*
X5425948Y1503121D01*
X5417108Y1504696D01*
X5407406Y1507591D01*
X5396636Y1509877D01*
X5384952Y1511909D01*
X5376164Y1514500D01*
X5368340Y1515770D01*
X5351780Y1519428D01*
X5327345Y1523644D01*
X5309260Y1527352D01*
X5302961Y1527352D01*
X5264912Y1534312D01*
X5242661Y1536141D01*
X5235549Y1538071D01*
X5211216Y1540103D01*
X5201716Y1542034D01*
X5163362Y1543964D01*
X5135067Y1546555D01*
G37*
G36*
X4489043Y1542999D02*
G01*
X4334713Y1542491D01*
X4334103Y1524914D01*
X4338218Y1486814D01*
X4342231Y1463344D01*
X4346143Y1444752D01*
X4353915Y1417421D01*
X4355896Y1411528D01*
X4358640Y1401775D01*
X4361535Y1395628D01*
X4361586Y1392986D01*
X4365396Y1385163D01*
X4365447Y1382776D01*
X4380788Y1348028D01*
X4391456Y1326540D01*
X4401769Y1306982D01*
X4404207Y1304036D01*
X4405579Y1301089D01*
X4417009Y1281582D01*
X4435703Y1253388D01*
X4435703Y1251000D01*
X4432655Y1249781D01*
X4135069Y1249781D01*
X4135069Y1093419D01*
X4449267Y1093419D01*
X4450486Y1091488D01*
X4444034Y1082751D01*
X4439158Y1075740D01*
X4437126Y1073404D01*
X4423054Y1051915D01*
X4421225Y1049731D01*
X4402531Y1018692D01*
X4398568Y1010869D01*
X4390034Y995222D01*
X4383786Y982522D01*
X4369358Y951026D01*
X4369358Y948842D01*
X4365650Y940511D01*
X4361789Y930706D01*
X4357979Y919987D01*
X4349953Y893571D01*
X4346143Y878941D01*
X4341876Y861364D01*
X4339844Y858875D01*
X4135069Y858875D01*
X4135069Y702564D01*
X4341469Y702056D01*
X4345787Y687374D01*
X4345889Y682498D01*
X4353966Y655116D01*
X4357624Y644702D01*
X4357624Y641756D01*
X4360468Y635609D01*
X4366514Y618998D01*
X4369358Y612800D01*
X4369358Y610565D01*
X4373016Y603351D01*
X4380839Y585724D01*
X4398772Y550570D01*
X4410405Y530047D01*
X4418126Y518312D01*
X4422089Y511454D01*
X4441596Y482295D01*
X4441596Y480923D01*
X4437176Y479755D01*
X4135069Y479704D01*
X4135069Y323342D01*
X4442307Y323342D01*
X4444492Y320700D01*
X4440224Y315264D01*
X4421479Y287680D01*
X4415129Y276910D01*
X4409389Y268122D01*
X4407458Y264210D01*
X4402531Y256387D01*
X4394098Y240741D01*
X4383176Y219252D01*
X4373016Y196799D01*
X4369358Y189585D01*
X4369358Y187299D01*
X4366514Y181152D01*
X4363313Y172364D01*
X4353712Y144018D01*
X4349953Y131318D01*
X4346041Y116636D01*
X4343806Y106883D01*
X4341825Y95148D01*
X4339031Y82753D01*
X4337151Y62890D01*
X4335119Y51155D01*
X4333900Y21437D01*
X4336389Y18440D01*
X4488180Y18440D01*
X4490110Y20878D01*
X4491228Y42367D01*
X4496206Y72694D01*
X4500016Y88290D01*
X4503216Y100025D01*
X4506010Y106222D01*
X4506061Y109829D01*
X4509820Y117602D01*
X4509922Y120040D01*
X4513630Y128371D01*
X4518863Y141071D01*
X4534408Y172364D01*
X4541672Y185064D01*
X4552137Y201676D01*
X4564075Y219964D01*
X4579670Y241452D01*
X4591761Y256387D01*
X4609998Y279857D01*
X4618634Y293522D01*
X4630928Y317398D01*
X4630928Y320294D01*
X4633976Y323342D01*
X4873802Y323342D01*
X4876901Y324510D01*
X4876901Y332638D01*
X4873142Y352196D01*
X4865319Y397154D01*
X4861204Y425450D01*
X4858308Y441807D01*
X4856429Y461416D01*
X4854194Y473354D01*
X4852873Y479247D01*
X4632909Y479704D01*
X4627829Y487781D01*
X4625695Y493877D01*
X4614113Y514299D01*
X4611420Y516991D01*
X4611420Y518718D01*
X4579670Y558698D01*
X4562754Y581812D01*
X4546346Y607263D01*
X4542180Y614070D01*
X4539183Y619963D01*
X4534509Y627786D01*
X4517694Y661314D01*
X4517694Y662736D01*
X4510786Y678383D01*
X4504994Y696163D01*
X4502861Y700379D01*
X4504182Y702513D01*
X4831638Y702513D01*
X4834890Y704951D01*
X4834432Y858418D01*
X4504232Y859383D01*
X4503013Y860602D01*
X4507839Y875030D01*
X4513986Y891641D01*
X4517694Y898855D01*
X4517694Y900988D01*
X4530801Y927811D01*
X4540402Y944422D01*
X4542129Y948334D01*
X4547920Y957122D01*
X4549292Y959916D01*
X4557674Y972769D01*
X4566513Y985469D01*
X4579670Y1003553D01*
X4609947Y1042111D01*
X4618837Y1055827D01*
X4630928Y1080058D01*
X4630928Y1081836D01*
X4634534Y1090015D01*
X4635754Y1093419D01*
X4852212Y1093419D01*
X4855565Y1097178D01*
X4861356Y1139850D01*
X4864354Y1156462D01*
X4866132Y1171956D01*
X4868976Y1184808D01*
X4873193Y1211224D01*
X4876749Y1228801D01*
X4879035Y1243431D01*
X4879340Y1249324D01*
X4628489Y1250289D01*
X4618634Y1268882D01*
X4608677Y1284478D01*
X4579670Y1321104D01*
X4561128Y1346454D01*
X4547057Y1368552D01*
X4534357Y1390040D01*
X4517948Y1423263D01*
X4513580Y1434033D01*
X4509922Y1442059D01*
X4509871Y1444752D01*
X4506925Y1450492D01*
X4505147Y1457452D01*
X4502099Y1466291D01*
X4498441Y1479956D01*
X4495139Y1493977D01*
X4492396Y1514144D01*
X4490415Y1526844D01*
X4490364Y1541678D01*
G37*
G36*
X5014214Y-106680D02*
G01*
X5011623Y-107137D01*
X5009438Y-108407D01*
X5007914Y-110642D01*
X5007356Y-113792D01*
X5007610Y-115976D01*
X5008575Y-118364D01*
X5010658Y-121158D01*
X5037582Y-145288D01*
X5041646Y-141986D01*
X5024882Y-114808D01*
X5022088Y-110947D01*
X5019446Y-108458D01*
X5016855Y-107086D01*
G37*
G36*
X4347464Y-106680D02*
G01*
X4344873Y-107137D01*
X4342587Y-108407D01*
X4340961Y-110642D01*
X4340352Y-113792D01*
X4340656Y-115976D01*
X4341723Y-118364D01*
X4343908Y-121158D01*
X4370832Y-145288D01*
X4374896Y-141986D01*
X4358132Y-114808D01*
X4355338Y-110947D01*
X4352696Y-108458D01*
X4350105Y-107086D01*
G37*
G36*
X3370834Y-109982D02*
G01*
X3368294Y-111506D01*
X3368801Y-139192D01*
X3368801Y-173736D01*
X3361588Y-167132D01*
X3354120Y-162560D01*
X3346500Y-159867D01*
X3338829Y-159004D01*
X3333648Y-159359D01*
X3328720Y-160477D01*
X3324098Y-162255D01*
X3319779Y-164744D01*
X3315817Y-167843D01*
X3312261Y-171653D01*
X3309112Y-176022D01*
X3306470Y-181051D01*
X3304336Y-186639D01*
X3302812Y-192836D01*
X3301847Y-199542D01*
X3301567Y-208279D01*
X3318510Y-208279D01*
X3319018Y-199085D01*
X3320389Y-191109D01*
X3322675Y-184302D01*
X3325723Y-178765D01*
X3329482Y-174447D01*
X3333851Y-171399D01*
X3338779Y-169519D01*
X3344164Y-168910D01*
X3348990Y-169265D01*
X3354527Y-170789D01*
X3360877Y-174142D01*
X3368294Y-180086D01*
X3368294Y-235966D01*
X3362350Y-240842D01*
X3356406Y-244144D01*
X3350564Y-246024D01*
X3344926Y-246634D01*
X3339795Y-246125D01*
X3334918Y-244449D01*
X3330448Y-241655D01*
X3326485Y-237642D01*
X3323183Y-232359D01*
X3320694Y-225755D01*
X3319068Y-217728D01*
X3318510Y-208279D01*
X3301567Y-208279D01*
X3301847Y-213918D01*
X3302812Y-220675D01*
X3304438Y-226974D01*
X3306622Y-232765D01*
X3309416Y-237998D01*
X3312668Y-242722D01*
X3316427Y-246786D01*
X3320643Y-250190D01*
X3325266Y-252882D01*
X3330295Y-254914D01*
X3335680Y-256133D01*
X3341370Y-256540D01*
X3348177Y-255879D01*
X3355187Y-253644D01*
X3362147Y-249377D01*
X3368801Y-242570D01*
X3370326Y-256032D01*
X3399282Y-254000D01*
X3399282Y-247904D01*
X3384804Y-245871D01*
X3384296Y-213106D01*
X3384296Y-125730D01*
X3400298Y-123952D01*
X3400298Y-118110D01*
G37*
G36*
X3741165Y-112776D02*
G01*
X3736441Y-113639D01*
X3732479Y-116078D01*
X3729736Y-119837D01*
X3728720Y-124714D01*
X3729736Y-129489D01*
X3732479Y-133400D01*
X3736441Y-135940D01*
X3741165Y-136906D01*
X3746144Y-135940D01*
X3750157Y-133400D01*
X3752900Y-129489D01*
X3753865Y-124714D01*
X3752900Y-119837D01*
X3750157Y-116078D01*
X3746144Y-113639D01*
G37*
G36*
X3199384Y-120904D02*
G01*
X3190697Y-121564D01*
X3183229Y-123444D01*
X3177032Y-126492D01*
X3172002Y-130556D01*
X3168142Y-135585D01*
X3165449Y-141478D01*
X3163824Y-148132D01*
X3163316Y-155448D01*
X3163519Y-159613D01*
X3164179Y-163677D01*
X3165297Y-167690D01*
X3166973Y-171754D01*
X3169158Y-175971D01*
X3171901Y-180340D01*
X3175304Y-185013D01*
X3183991Y-195427D01*
X3195523Y-207924D01*
X3225292Y-239014D01*
X3157728Y-239014D01*
X3157728Y-254000D01*
X3237738Y-254000D01*
X3237738Y-241808D01*
X3208274Y-208534D01*
X3201619Y-200660D01*
X3195878Y-193344D01*
X3191052Y-186537D01*
X3187141Y-180136D01*
X3184144Y-173990D01*
X3182010Y-168046D01*
X3180740Y-162255D01*
X3180334Y-156464D01*
X3180740Y-150469D01*
X3182010Y-145084D01*
X3183991Y-140360D01*
X3186734Y-136347D01*
X3190189Y-133096D01*
X3194253Y-130759D01*
X3198977Y-129285D01*
X3204210Y-128778D01*
X3208934Y-128981D01*
X3214624Y-129794D01*
X3218434Y-144018D01*
X3220364Y-149809D01*
X3222802Y-153670D01*
X3225698Y-155803D01*
X3229102Y-156464D01*
X3232048Y-156057D01*
X3234639Y-154838D01*
X3236874Y-152908D01*
X3238500Y-150368D01*
X3236874Y-143510D01*
X3234080Y-137515D01*
X3230168Y-132435D01*
X3225342Y-128320D01*
X3219704Y-125069D01*
X3213404Y-122732D01*
X3206597Y-121361D01*
G37*
G36*
X3100578Y-120904D02*
G01*
X3096768Y-121107D01*
X3093008Y-121767D01*
X3089300Y-122935D01*
X3085693Y-124510D01*
X3082188Y-126644D01*
X3078886Y-129285D01*
X3075736Y-132435D01*
X3072790Y-136144D01*
X3070047Y-140411D01*
X3067608Y-145288D01*
X3065475Y-150774D01*
X3063646Y-156921D01*
X3062173Y-163677D01*
X3061106Y-171094D01*
X3060446Y-179171D01*
X3060192Y-187960D01*
X3077464Y-187960D01*
X3077667Y-176936D01*
X3078327Y-167284D01*
X3079394Y-158902D01*
X3080816Y-151739D01*
X3082544Y-145694D01*
X3084525Y-140766D01*
X3086811Y-136753D01*
X3089300Y-133654D01*
X3091942Y-131419D01*
X3094736Y-129895D01*
X3097631Y-129032D01*
X3100578Y-128778D01*
X3103676Y-129032D01*
X3106674Y-129895D01*
X3109569Y-131419D01*
X3112312Y-133654D01*
X3114852Y-136753D01*
X3117189Y-140766D01*
X3119272Y-145694D01*
X3121050Y-151739D01*
X3122472Y-158902D01*
X3123539Y-167284D01*
X3124200Y-176936D01*
X3124454Y-187960D01*
X3124200Y-199339D01*
X3123539Y-209296D01*
X3122472Y-217932D01*
X3121050Y-225348D01*
X3119272Y-231546D01*
X3117189Y-236626D01*
X3114852Y-240741D01*
X3112312Y-243890D01*
X3109569Y-246227D01*
X3106674Y-247751D01*
X3103676Y-248666D01*
X3100578Y-248920D01*
X3097631Y-248666D01*
X3094736Y-247751D01*
X3091942Y-246176D01*
X3089300Y-243840D01*
X3086811Y-240639D01*
X3084525Y-236524D01*
X3082544Y-231394D01*
X3080816Y-225196D01*
X3079394Y-217830D01*
X3078327Y-209245D01*
X3077667Y-199288D01*
X3077464Y-187960D01*
X3060192Y-187960D01*
X3060446Y-197002D01*
X3061106Y-205333D01*
X3062173Y-212953D01*
X3063646Y-219913D01*
X3065475Y-226161D01*
X3067608Y-231749D01*
X3070047Y-236728D01*
X3072790Y-241096D01*
X3075736Y-244906D01*
X3078886Y-248107D01*
X3082188Y-250748D01*
X3085693Y-252882D01*
X3089300Y-254508D01*
X3093008Y-255676D01*
X3096768Y-256336D01*
X3100578Y-256540D01*
X3104489Y-256336D01*
X3108401Y-255676D01*
X3112211Y-254508D01*
X3115919Y-252882D01*
X3119475Y-250748D01*
X3122879Y-248107D01*
X3126079Y-244906D01*
X3129076Y-241096D01*
X3131820Y-236728D01*
X3134258Y-231749D01*
X3136442Y-226161D01*
X3138271Y-219913D01*
X3139744Y-212953D01*
X3140811Y-205333D01*
X3141472Y-197002D01*
X3141726Y-187960D01*
X3141472Y-179171D01*
X3140811Y-171094D01*
X3139744Y-163677D01*
X3138271Y-156921D01*
X3136442Y-150774D01*
X3134258Y-145288D01*
X3131820Y-140411D01*
X3129076Y-136144D01*
X3126079Y-132435D01*
X3122879Y-129285D01*
X3119475Y-126644D01*
X3115919Y-124510D01*
X3112211Y-122935D01*
X3108401Y-121767D01*
X3104489Y-121107D01*
G37*
G36*
X3004312Y-120904D02*
G01*
X2998317Y-121208D01*
X2992882Y-122072D01*
X2988005Y-123444D01*
X2983738Y-125323D01*
X2979978Y-127711D01*
X2976727Y-130556D01*
X2974035Y-133807D01*
X2971800Y-137464D01*
X2970123Y-141478D01*
X2968955Y-145846D01*
X2968244Y-150520D01*
X2967990Y-155448D01*
X2968193Y-159613D01*
X2968853Y-163677D01*
X2969971Y-167690D01*
X2971647Y-171754D01*
X2973832Y-175971D01*
X2976575Y-180340D01*
X2979978Y-185013D01*
X2988665Y-195427D01*
X3000197Y-207924D01*
X3029966Y-239014D01*
X2962402Y-239014D01*
X2962402Y-254000D01*
X3042412Y-254000D01*
X3042412Y-241808D01*
X3012948Y-208534D01*
X3006293Y-200660D01*
X3000552Y-193344D01*
X2995726Y-186537D01*
X2991815Y-180136D01*
X2988818Y-173990D01*
X2986684Y-168046D01*
X2985414Y-162255D01*
X2985008Y-156464D01*
X2985465Y-150469D01*
X2986684Y-145084D01*
X2988767Y-140360D01*
X2991510Y-136347D01*
X2994964Y-133096D01*
X2999028Y-130759D01*
X3003702Y-129285D01*
X3008884Y-128778D01*
X3013608Y-128981D01*
X3019298Y-129794D01*
X3023362Y-144018D01*
X3025292Y-149809D01*
X3027629Y-153670D01*
X3030524Y-155803D01*
X3034030Y-156464D01*
X3036925Y-156057D01*
X3039465Y-154838D01*
X3041650Y-152908D01*
X3043428Y-150368D01*
X3041751Y-143510D01*
X3038856Y-137515D01*
X3034893Y-132435D01*
X3030067Y-128320D01*
X3024428Y-125069D01*
X3018180Y-122732D01*
X3011424Y-121361D01*
G37*
G36*
X2880614Y-121666D02*
G01*
X2880614Y-139954D01*
X2896362Y-139954D01*
X2939288Y-202184D01*
X2896362Y-202184D01*
X2896362Y-139954D01*
X2880614Y-139954D01*
X2880614Y-202184D01*
X2860040Y-202184D01*
X2860040Y-213360D01*
X2880614Y-213360D01*
X2880614Y-254000D01*
X2896362Y-254000D01*
X2896362Y-213360D01*
X2949194Y-213360D01*
X2949194Y-203962D01*
X2891536Y-121666D01*
G37*
G36*
X5090160Y-123698D02*
G01*
X5090160Y-130556D01*
X5108448Y-132334D01*
X5108803Y-227939D01*
X5109260Y-238861D01*
X5110073Y-247599D01*
X5111496Y-255270D01*
X5113477Y-262229D01*
X5116474Y-268325D01*
X5120386Y-273456D01*
X5125008Y-277672D01*
X5130241Y-280974D01*
X5135930Y-283362D01*
X5141925Y-284784D01*
X5148072Y-285242D01*
X5153456Y-284835D01*
X5158384Y-283464D01*
X5162296Y-280720D01*
X5164836Y-276352D01*
X5163312Y-272084D01*
X5160670Y-269189D01*
X5157165Y-267512D01*
X5152898Y-266954D01*
X5149596Y-267258D01*
X5146344Y-268274D01*
X5142941Y-270052D01*
X5139182Y-272796D01*
X5134102Y-277368D01*
X5130139Y-272846D01*
X5127345Y-267004D01*
X5125720Y-259588D01*
X5125212Y-250190D01*
X5126990Y-132334D01*
X5146802Y-130556D01*
X5146802Y-123698D01*
G37*
G36*
X3776218Y-123698D02*
G01*
X3774948Y-158242D01*
X3784346Y-158242D01*
X3789934Y-132080D01*
X3820668Y-132080D01*
X3820871Y-158038D01*
X3820871Y-225907D01*
X3820668Y-245110D01*
X3800348Y-247142D01*
X3800348Y-254000D01*
X3859022Y-254000D01*
X3859022Y-247142D01*
X3838956Y-245110D01*
X3838752Y-219659D01*
X3838752Y-151536D01*
X3838956Y-132080D01*
X3869690Y-132080D01*
X3875024Y-158242D01*
X3884676Y-158242D01*
X3883151Y-123698D01*
G37*
G36*
X3556254Y-123698D02*
G01*
X3556254Y-130556D01*
X3574542Y-132334D01*
X3574948Y-151587D01*
X3575050Y-208279D01*
X3574846Y-232867D01*
X3574542Y-245617D01*
X3529837Y-245617D01*
X3523487Y-217424D01*
X3513328Y-217424D01*
X3514851Y-254000D01*
X3611372Y-254000D01*
X3611372Y-247142D01*
X3593084Y-245364D01*
X3592880Y-219557D01*
X3592880Y-151587D01*
X3593084Y-132334D01*
X3611372Y-130556D01*
X3611372Y-123698D01*
G37*
G36*
X4061206Y-134874D02*
G01*
X4062222Y-161798D01*
X4036060Y-161798D01*
X4036060Y-170180D01*
X4062476Y-170180D01*
X4062476Y-232917D01*
X4061714Y-239623D01*
X4059428Y-244195D01*
X4055821Y-246837D01*
X4051046Y-247650D01*
X4047744Y-247294D01*
X4044645Y-246278D01*
X4041394Y-244551D01*
X4037837Y-242062D01*
X4034028Y-246634D01*
X4038142Y-250748D01*
X4043324Y-253847D01*
X4049369Y-255828D01*
X4056379Y-256540D01*
X4061358Y-256184D01*
X4065727Y-255168D01*
X4069486Y-253441D01*
X4072686Y-251002D01*
X4075176Y-247853D01*
X4077004Y-243890D01*
X4078122Y-239166D01*
X4078478Y-233679D01*
X4078478Y-170180D01*
X4094987Y-170180D01*
X4094987Y-163322D01*
X4077462Y-161290D01*
X4072382Y-134874D01*
G37*
G36*
X5034534Y-159004D02*
G01*
X5028895Y-159359D01*
X5023358Y-160375D01*
X5018024Y-162102D01*
X5012893Y-164541D01*
X5008118Y-167640D01*
X5003698Y-171399D01*
X4999786Y-175869D01*
X4996383Y-181000D01*
X4993640Y-186740D01*
X4991557Y-193192D01*
X4990287Y-200304D01*
X4989830Y-208025D01*
X5007610Y-208025D01*
X5008067Y-198526D01*
X5009438Y-190195D01*
X5011724Y-183083D01*
X5014772Y-177241D01*
X5018633Y-172618D01*
X5023256Y-169316D01*
X5028539Y-167284D01*
X5034534Y-166624D01*
X5040579Y-167284D01*
X5045913Y-169316D01*
X5050536Y-172618D01*
X5054396Y-177241D01*
X5057444Y-183083D01*
X5059629Y-190195D01*
X5061000Y-198526D01*
X5061458Y-208025D01*
X5061000Y-217525D01*
X5059629Y-225755D01*
X5057444Y-232816D01*
X5054396Y-238556D01*
X5050536Y-243078D01*
X5045913Y-246329D01*
X5040579Y-248259D01*
X5034534Y-248920D01*
X5028539Y-248259D01*
X5023256Y-246329D01*
X5018633Y-243078D01*
X5014772Y-238556D01*
X5011724Y-232816D01*
X5009438Y-225755D01*
X5008067Y-217525D01*
X5007610Y-208025D01*
X4989830Y-208025D01*
X4990287Y-215747D01*
X4991557Y-222808D01*
X4993640Y-229209D01*
X4996383Y-234950D01*
X4999786Y-239979D01*
X5003698Y-244398D01*
X5008118Y-248107D01*
X5012893Y-251155D01*
X5018024Y-253492D01*
X5023358Y-255168D01*
X5028895Y-256184D01*
X5034534Y-256540D01*
X5040223Y-256184D01*
X5045760Y-255168D01*
X5051145Y-253441D01*
X5056276Y-251053D01*
X5061051Y-248005D01*
X5065471Y-244297D01*
X5069382Y-239877D01*
X5072735Y-234848D01*
X5075478Y-229108D01*
X5077510Y-222707D01*
X5078780Y-215696D01*
X5079238Y-208025D01*
X5078780Y-200355D01*
X5077510Y-193294D01*
X5075478Y-186842D01*
X5072735Y-181102D01*
X5069382Y-175971D01*
X5065471Y-171500D01*
X5061051Y-167741D01*
X5056276Y-164592D01*
X5051145Y-162153D01*
X5045760Y-160426D01*
X5040223Y-159359D01*
G37*
G36*
X4833112Y-159004D02*
G01*
X4827981Y-159308D01*
X4823104Y-160172D01*
X4818532Y-161594D01*
X4814316Y-163525D01*
X4810506Y-166014D01*
X4807051Y-168960D01*
X4804054Y-172415D01*
X4801514Y-176326D01*
X4799482Y-180644D01*
X4798009Y-185420D01*
X4797330Y-189230D01*
X4812538Y-189230D01*
X4812944Y-184759D01*
X4814112Y-180543D01*
X4816043Y-176733D01*
X4818583Y-173380D01*
X4821732Y-170586D01*
X4825390Y-168452D01*
X4829556Y-167081D01*
X4834128Y-166624D01*
X4838547Y-167081D01*
X4842916Y-168554D01*
X4847082Y-170992D01*
X4850942Y-174447D01*
X4854397Y-179019D01*
X4857191Y-184708D01*
X4859324Y-191566D01*
X4860544Y-199644D01*
X4822952Y-199898D01*
X4817770Y-199136D01*
X4814620Y-196951D01*
X4812995Y-193598D01*
X4812538Y-189230D01*
X4797330Y-189230D01*
X4797094Y-190550D01*
X4796790Y-196088D01*
X4797145Y-202336D01*
X4798060Y-207010D01*
X4860798Y-206756D01*
X4860036Y-215849D01*
X4858207Y-223774D01*
X4855311Y-230428D01*
X4851501Y-235915D01*
X4846828Y-240131D01*
X4841341Y-243179D01*
X4835144Y-245008D01*
X4828286Y-245617D01*
X4819650Y-244602D01*
X4812487Y-241757D01*
X4806340Y-237388D01*
X4800854Y-231648D01*
X4797044Y-234188D01*
X4799939Y-239064D01*
X4803394Y-243484D01*
X4807254Y-247294D01*
X4811674Y-250494D01*
X4816500Y-253085D01*
X4821834Y-254965D01*
X4827625Y-256133D01*
X4833874Y-256540D01*
X4840224Y-256184D01*
X4846218Y-255117D01*
X4851755Y-253339D01*
X4856886Y-250850D01*
X4861509Y-247751D01*
X4865674Y-243941D01*
X4869230Y-239572D01*
X4872228Y-234543D01*
X4874615Y-228904D01*
X4876393Y-222656D01*
X4877460Y-215900D01*
X4877816Y-208534D01*
X4877409Y-201269D01*
X4876190Y-194462D01*
X4874209Y-188163D01*
X4871567Y-182372D01*
X4868316Y-177139D01*
X4864506Y-172516D01*
X4860188Y-168554D01*
X4855413Y-165201D01*
X4850282Y-162509D01*
X4844796Y-160578D01*
X4839055Y-159410D01*
G37*
G36*
X4714240Y-159004D02*
G01*
X4708448Y-159512D01*
X4703419Y-161036D01*
X4699203Y-163626D01*
X4695748Y-167335D01*
X4693056Y-172262D01*
X4691126Y-178409D01*
X4690008Y-185826D01*
X4689602Y-194564D01*
X4689551Y-220776D01*
X4689094Y-245871D01*
X4675378Y-247904D01*
X4675378Y-254000D01*
X4720336Y-254000D01*
X4720336Y-247904D01*
X4705858Y-245871D01*
X4705350Y-213106D01*
X4705350Y-195072D01*
X4706264Y-183845D01*
X4709210Y-176479D01*
X4714240Y-172415D01*
X4721606Y-171196D01*
X4728057Y-171958D01*
X4734610Y-174294D01*
X4741468Y-178358D01*
X4748784Y-184404D01*
X4748733Y-229209D01*
X4748530Y-245871D01*
X4735068Y-247904D01*
X4735068Y-254000D01*
X4779772Y-254000D01*
X4779772Y-247904D01*
X4765294Y-245871D01*
X4765090Y-195427D01*
X4765548Y-177292D01*
X4781042Y-175768D01*
X4781042Y-169926D01*
X4753610Y-159258D01*
X4751070Y-161036D01*
X4749292Y-177038D01*
X4745431Y-173075D01*
X4741367Y-169519D01*
X4737049Y-166420D01*
X4732629Y-163830D01*
X4728057Y-161747D01*
X4723485Y-160274D01*
X4718862Y-159308D01*
G37*
G36*
X4570730Y-159004D02*
G01*
X4565091Y-159359D01*
X4559554Y-160375D01*
X4554169Y-162102D01*
X4549038Y-164541D01*
X4544212Y-167640D01*
X4539792Y-171399D01*
X4535830Y-175869D01*
X4532426Y-181000D01*
X4529632Y-186740D01*
X4527550Y-193192D01*
X4526229Y-200304D01*
X4525772Y-208025D01*
X4543806Y-208025D01*
X4544263Y-198526D01*
X4545634Y-190195D01*
X4547819Y-183083D01*
X4550867Y-177241D01*
X4554728Y-172618D01*
X4559350Y-169316D01*
X4564684Y-167284D01*
X4570730Y-166624D01*
X4576775Y-167284D01*
X4582109Y-169316D01*
X4586732Y-172618D01*
X4590592Y-177241D01*
X4593640Y-183083D01*
X4595825Y-190195D01*
X4597196Y-198526D01*
X4597654Y-208025D01*
X4597196Y-217525D01*
X4595825Y-225755D01*
X4593640Y-232816D01*
X4590592Y-238556D01*
X4586732Y-243078D01*
X4582109Y-246329D01*
X4576775Y-248259D01*
X4570730Y-248920D01*
X4564684Y-248259D01*
X4559350Y-246329D01*
X4554728Y-243078D01*
X4550867Y-238556D01*
X4547819Y-232816D01*
X4545634Y-225755D01*
X4544263Y-217525D01*
X4543806Y-208025D01*
X4525772Y-208025D01*
X4526229Y-215747D01*
X4527499Y-222808D01*
X4529582Y-229209D01*
X4532325Y-234950D01*
X4535728Y-239979D01*
X4539691Y-244398D01*
X4544110Y-248107D01*
X4548936Y-251155D01*
X4554067Y-253492D01*
X4559452Y-255168D01*
X4565040Y-256184D01*
X4570730Y-256540D01*
X4576419Y-256184D01*
X4581956Y-255168D01*
X4587341Y-253441D01*
X4592472Y-251053D01*
X4597247Y-248005D01*
X4601667Y-244297D01*
X4605578Y-239877D01*
X4608931Y-234848D01*
X4611674Y-229108D01*
X4613706Y-222707D01*
X4614976Y-215696D01*
X4615434Y-208025D01*
X4614976Y-200355D01*
X4613706Y-193294D01*
X4611624Y-186842D01*
X4608880Y-181102D01*
X4605477Y-175971D01*
X4601565Y-171500D01*
X4597146Y-167741D01*
X4592370Y-164592D01*
X4587240Y-162153D01*
X4581906Y-160426D01*
X4576368Y-159359D01*
G37*
G36*
X4463542Y-159004D02*
G01*
X4457242Y-159512D01*
X4451299Y-160883D01*
X4445863Y-163118D01*
X4440986Y-166116D01*
X4436770Y-169773D01*
X4433366Y-173990D01*
X4430826Y-178765D01*
X4429252Y-183896D01*
X4430471Y-187045D01*
X4432350Y-189280D01*
X4434789Y-190550D01*
X4437888Y-191008D01*
X4441901Y-190347D01*
X4444898Y-188518D01*
X4446981Y-185674D01*
X4448302Y-181864D01*
X4451858Y-168402D01*
X4457496Y-167030D01*
X4462526Y-166624D01*
X4468926Y-167284D01*
X4474667Y-169265D01*
X4479747Y-172516D01*
X4484065Y-176987D01*
X4487519Y-182676D01*
X4490110Y-189433D01*
X4491685Y-197307D01*
X4492244Y-206248D01*
X4491990Y-212293D01*
X4491177Y-217881D01*
X4489856Y-223012D01*
X4488078Y-227634D01*
X4485843Y-231749D01*
X4483150Y-235356D01*
X4480102Y-238455D01*
X4476699Y-240995D01*
X4472940Y-243027D01*
X4468926Y-244449D01*
X4464558Y-245313D01*
X4459986Y-245617D01*
X4451908Y-244602D01*
X4444593Y-241655D01*
X4438142Y-237032D01*
X4432808Y-230886D01*
X4428998Y-232664D01*
X4431436Y-238048D01*
X4434433Y-242824D01*
X4438091Y-246938D01*
X4442358Y-250342D01*
X4447184Y-252984D01*
X4452620Y-254965D01*
X4458563Y-256133D01*
X4465066Y-256540D01*
X4471466Y-256133D01*
X4477512Y-255016D01*
X4483100Y-253136D01*
X4488180Y-250545D01*
X4492853Y-247345D01*
X4496968Y-243433D01*
X4500524Y-238912D01*
X4503470Y-233832D01*
X4505858Y-228142D01*
X4507585Y-221945D01*
X4508652Y-215239D01*
X4509008Y-208025D01*
X4508550Y-200609D01*
X4507280Y-193700D01*
X4505248Y-187401D01*
X4502454Y-181660D01*
X4499102Y-176530D01*
X4495139Y-172008D01*
X4490669Y-168097D01*
X4485843Y-164896D01*
X4480610Y-162356D01*
X4475124Y-160477D01*
X4469384Y-159359D01*
G37*
G36*
X4241800Y-159004D02*
G01*
X4236720Y-159359D01*
X4231843Y-160477D01*
X4227220Y-162306D01*
X4222953Y-164846D01*
X4218990Y-168046D01*
X4215434Y-171907D01*
X4212336Y-176377D01*
X4209694Y-181406D01*
X4207560Y-187096D01*
X4206036Y-193294D01*
X4205071Y-199999D01*
X4204790Y-208788D01*
X4221734Y-208788D01*
X4222191Y-199542D01*
X4223562Y-191516D01*
X4225747Y-184658D01*
X4228642Y-179019D01*
X4232300Y-174650D01*
X4236516Y-171450D01*
X4241342Y-169570D01*
X4246626Y-168910D01*
X4251452Y-169316D01*
X4256938Y-170891D01*
X4263237Y-174142D01*
X4270502Y-179578D01*
X4270502Y-236982D01*
X4265066Y-241401D01*
X4259681Y-244398D01*
X4254246Y-246075D01*
X4248658Y-246634D01*
X4243222Y-246125D01*
X4238142Y-244449D01*
X4233570Y-241706D01*
X4229557Y-237693D01*
X4226306Y-232460D01*
X4223816Y-225958D01*
X4222292Y-218084D01*
X4221734Y-208788D01*
X4204790Y-208788D01*
X4205071Y-214579D01*
X4206087Y-221386D01*
X4207713Y-227736D01*
X4209999Y-233476D01*
X4212793Y-238658D01*
X4216095Y-243230D01*
X4219854Y-247192D01*
X4224070Y-250494D01*
X4228693Y-253085D01*
X4233722Y-254965D01*
X4239006Y-256133D01*
X4244594Y-256540D01*
X4251299Y-255930D01*
X4258005Y-253847D01*
X4264609Y-249885D01*
X4271010Y-243586D01*
X4270756Y-292100D01*
X4252976Y-294640D01*
X4252976Y-300482D01*
X4302760Y-300482D01*
X4302760Y-294640D01*
X4287012Y-292354D01*
X4286504Y-259588D01*
X4286554Y-195427D01*
X4287012Y-177292D01*
X4302760Y-175768D01*
X4302760Y-169926D01*
X4275328Y-159258D01*
X4272788Y-161036D01*
X4271518Y-173482D01*
X4264355Y-166928D01*
X4256938Y-162458D01*
X4249420Y-159816D01*
G37*
G36*
X4146804Y-159004D02*
G01*
X4139692Y-159461D01*
X4133494Y-160832D01*
X4128312Y-163271D01*
X4124045Y-166725D01*
X4120794Y-171297D01*
X4118457Y-177088D01*
X4117035Y-184150D01*
X4116578Y-192532D01*
X4116578Y-202692D01*
X4132579Y-202692D01*
X4142536Y-205841D01*
X4150614Y-208788D01*
X4160926Y-213817D01*
X4167022Y-219151D01*
X4169918Y-224586D01*
X4170679Y-229870D01*
X4169460Y-236728D01*
X4166158Y-241503D01*
X4161129Y-244246D01*
X4154932Y-245110D01*
X4149953Y-244551D01*
X4145178Y-242620D01*
X4139692Y-239115D01*
X4132579Y-233679D01*
X4132579Y-202692D01*
X4116578Y-202692D01*
X4116578Y-234696D01*
X4116120Y-240588D01*
X4114749Y-244449D01*
X4112514Y-246532D01*
X4109465Y-247142D01*
X4107179Y-246837D01*
X4105249Y-245922D01*
X4103420Y-244449D01*
X4101592Y-242570D01*
X4098036Y-246125D01*
X4101642Y-250799D01*
X4105554Y-253847D01*
X4109923Y-255524D01*
X4114800Y-256032D01*
X4121353Y-254965D01*
X4126534Y-251917D01*
X4130192Y-247142D01*
X4132326Y-240792D01*
X4139692Y-247650D01*
X4146397Y-252577D01*
X4153306Y-255524D01*
X4161282Y-256540D01*
X4166463Y-256184D01*
X4171340Y-255016D01*
X4175709Y-253136D01*
X4179570Y-250494D01*
X4182719Y-247142D01*
X4185158Y-243027D01*
X4186682Y-238201D01*
X4187190Y-232664D01*
X4186834Y-228346D01*
X4185716Y-224332D01*
X4183684Y-220522D01*
X4180586Y-216865D01*
X4176318Y-213410D01*
X4170679Y-210007D01*
X4163618Y-206603D01*
X4154932Y-203200D01*
X4149953Y-201472D01*
X4138523Y-198272D01*
X4132579Y-196850D01*
X4132834Y-184150D01*
X4133646Y-178816D01*
X4135069Y-174650D01*
X4137050Y-171450D01*
X4139641Y-169164D01*
X4142841Y-167690D01*
X4146753Y-166878D01*
X4151376Y-166624D01*
X4156557Y-167030D01*
X4162298Y-168148D01*
X4166108Y-181356D01*
X4167581Y-185369D01*
X4169714Y-188214D01*
X4172407Y-189941D01*
X4175760Y-190500D01*
X4179265Y-190042D01*
X4181906Y-188620D01*
X4183583Y-186334D01*
X4184396Y-183134D01*
X4182668Y-177800D01*
X4179925Y-173024D01*
X4176318Y-168910D01*
X4171899Y-165455D01*
X4166666Y-162712D01*
X4160672Y-160680D01*
X4154068Y-159410D01*
G37*
G36*
X3979672Y-159004D02*
G01*
X3974541Y-159308D01*
X3969664Y-160172D01*
X3965092Y-161594D01*
X3960876Y-163525D01*
X3957065Y-166014D01*
X3953611Y-168960D01*
X3950614Y-172415D01*
X3948074Y-176326D01*
X3946042Y-180644D01*
X3944569Y-185420D01*
X3943890Y-189230D01*
X3959098Y-189230D01*
X3959504Y-184759D01*
X3960672Y-180543D01*
X3962603Y-176733D01*
X3965143Y-173380D01*
X3968292Y-170586D01*
X3971950Y-168452D01*
X3976115Y-167081D01*
X3980687Y-166624D01*
X3985107Y-167081D01*
X3989476Y-168554D01*
X3993642Y-170992D01*
X3997502Y-174447D01*
X4000957Y-179019D01*
X4003751Y-184708D01*
X4005884Y-191566D01*
X4007104Y-199644D01*
X3969512Y-199898D01*
X3964330Y-199136D01*
X3961180Y-196951D01*
X3959555Y-193598D01*
X3959098Y-189230D01*
X3943890Y-189230D01*
X3943654Y-190550D01*
X3943350Y-196088D01*
X3943705Y-202336D01*
X3944620Y-207010D01*
X4007358Y-206756D01*
X4006596Y-215849D01*
X4004767Y-223774D01*
X4001871Y-230428D01*
X3998061Y-235915D01*
X3993387Y-240131D01*
X3987901Y-243179D01*
X3981704Y-245008D01*
X3974846Y-245617D01*
X3966210Y-244602D01*
X3959047Y-241757D01*
X3952900Y-237388D01*
X3947414Y-231648D01*
X3943604Y-234188D01*
X3946499Y-239064D01*
X3949954Y-243484D01*
X3953814Y-247294D01*
X3958234Y-250494D01*
X3963060Y-253085D01*
X3968394Y-254965D01*
X3974185Y-256133D01*
X3980434Y-256540D01*
X3986784Y-256184D01*
X3992778Y-255117D01*
X3998315Y-253339D01*
X4003446Y-250850D01*
X4008069Y-247751D01*
X4012234Y-243941D01*
X4015790Y-239572D01*
X4018787Y-234543D01*
X4021175Y-228904D01*
X4022953Y-222656D01*
X4024020Y-215900D01*
X4024376Y-208534D01*
X4023969Y-201269D01*
X4022750Y-194462D01*
X4020769Y-188163D01*
X4018127Y-182372D01*
X4014876Y-177139D01*
X4011066Y-172516D01*
X4006748Y-168554D01*
X4001973Y-165201D01*
X3996842Y-162509D01*
X3991356Y-160578D01*
X3985615Y-159410D01*
G37*
G36*
X3658870Y-159004D02*
G01*
X3652570Y-159512D01*
X3646627Y-160883D01*
X3641191Y-163118D01*
X3636314Y-166116D01*
X3632149Y-169773D01*
X3628796Y-173990D01*
X3626307Y-178765D01*
X3624834Y-183896D01*
X3625951Y-187045D01*
X3627678Y-189280D01*
X3630117Y-190550D01*
X3633215Y-191008D01*
X3637381Y-190347D01*
X3640429Y-188518D01*
X3642461Y-185674D01*
X3647440Y-168402D01*
X3652824Y-167030D01*
X3657854Y-166624D01*
X3664254Y-167284D01*
X3670046Y-169265D01*
X3675126Y-172516D01*
X3679494Y-176987D01*
X3683050Y-182676D01*
X3685641Y-189433D01*
X3687267Y-197307D01*
X3687826Y-206248D01*
X3687216Y-215138D01*
X3685387Y-223012D01*
X3682492Y-229768D01*
X3678631Y-235356D01*
X3673906Y-239775D01*
X3668420Y-243027D01*
X3662273Y-244957D01*
X3655568Y-245617D01*
X3647440Y-244602D01*
X3640074Y-241655D01*
X3633622Y-237032D01*
X3628390Y-230886D01*
X3624326Y-232664D01*
X3626815Y-238048D01*
X3629914Y-242824D01*
X3633571Y-246938D01*
X3637838Y-250342D01*
X3642664Y-252984D01*
X3648100Y-254965D01*
X3654094Y-256133D01*
X3660648Y-256540D01*
X3666998Y-256133D01*
X3672992Y-255016D01*
X3678529Y-253136D01*
X3683609Y-250545D01*
X3688232Y-247345D01*
X3692296Y-243433D01*
X3695852Y-238912D01*
X3698798Y-233832D01*
X3701186Y-228142D01*
X3702913Y-221945D01*
X3703980Y-215239D01*
X3704336Y-208025D01*
X3703878Y-200609D01*
X3702608Y-193700D01*
X3700576Y-187401D01*
X3697782Y-181660D01*
X3694429Y-176530D01*
X3690467Y-172008D01*
X3685997Y-168097D01*
X3681171Y-164896D01*
X3675938Y-162356D01*
X3670452Y-160477D01*
X3664712Y-159359D01*
G37*
G36*
X3455415Y-159004D02*
G01*
X3448304Y-159461D01*
X3442106Y-160832D01*
X3436924Y-163271D01*
X3432708Y-166725D01*
X3429406Y-171297D01*
X3427069Y-177088D01*
X3425647Y-184150D01*
X3425190Y-192532D01*
X3425190Y-202692D01*
X3441192Y-202692D01*
X3451250Y-205841D01*
X3459226Y-208788D01*
X3469538Y-213817D01*
X3475634Y-219151D01*
X3478529Y-224586D01*
X3479292Y-229870D01*
X3478123Y-236728D01*
X3474872Y-241503D01*
X3469843Y-244246D01*
X3463544Y-245110D01*
X3458718Y-244551D01*
X3453892Y-242620D01*
X3448304Y-239115D01*
X3441192Y-233679D01*
X3441192Y-202692D01*
X3425190Y-202692D01*
X3425190Y-234696D01*
X3424732Y-240588D01*
X3423361Y-244449D01*
X3421126Y-246532D01*
X3418078Y-247142D01*
X3415944Y-246837D01*
X3413963Y-245922D01*
X3412185Y-244449D01*
X3410458Y-242570D01*
X3406901Y-246125D01*
X3410356Y-250799D01*
X3414318Y-253847D01*
X3418636Y-255524D01*
X3423412Y-256032D01*
X3430015Y-254965D01*
X3435197Y-251917D01*
X3438906Y-247142D01*
X3440937Y-240792D01*
X3448354Y-247650D01*
X3455162Y-252577D01*
X3462172Y-255524D01*
X3470148Y-256540D01*
X3475329Y-256184D01*
X3480155Y-255016D01*
X3484524Y-253136D01*
X3488334Y-250494D01*
X3491433Y-247142D01*
X3493770Y-243027D01*
X3495294Y-238201D01*
X3495801Y-232664D01*
X3495446Y-228346D01*
X3494379Y-224332D01*
X3492347Y-220522D01*
X3489350Y-216865D01*
X3485083Y-213410D01*
X3479495Y-210007D01*
X3472484Y-206603D01*
X3463798Y-203200D01*
X3458718Y-201472D01*
X3447135Y-198272D01*
X3441192Y-196850D01*
X3441446Y-184150D01*
X3442258Y-178816D01*
X3443681Y-174650D01*
X3445611Y-171450D01*
X3448253Y-169164D01*
X3451453Y-167690D01*
X3455365Y-166878D01*
X3459987Y-166624D01*
X3465169Y-167030D01*
X3470910Y-168148D01*
X3474720Y-181356D01*
X3476193Y-185369D01*
X3478326Y-188214D01*
X3481171Y-189941D01*
X3484626Y-190500D01*
X3488131Y-190042D01*
X3490772Y-188620D01*
X3492449Y-186334D01*
X3493262Y-183134D01*
X3491534Y-177800D01*
X3488791Y-173024D01*
X3485184Y-168910D01*
X3480714Y-165455D01*
X3475431Y-162712D01*
X3469436Y-160680D01*
X3462731Y-159410D01*
G37*
G36*
X3735324Y-159258D02*
G01*
X3732784Y-161036D01*
X3733037Y-186944D01*
X3732784Y-245871D01*
X3719322Y-247904D01*
X3719322Y-254000D01*
X3764279Y-254000D01*
X3764279Y-247904D01*
X3749294Y-245871D01*
X3748786Y-213106D01*
X3748836Y-195376D01*
X3749548Y-177038D01*
X3765296Y-175514D01*
X3765296Y-169672D01*
G37*
G36*
X4329176Y-160274D02*
G01*
X4327398Y-162306D01*
X4327906Y-189738D01*
X4327906Y-245871D01*
X4314698Y-248158D01*
X4314698Y-254000D01*
X4341622Y-255524D01*
X4343400Y-237998D01*
X4347210Y-242316D01*
X4351274Y-246024D01*
X4355490Y-249224D01*
X4359859Y-251815D01*
X4364329Y-253898D01*
X4368901Y-255371D01*
X4373524Y-256235D01*
X4378198Y-256540D01*
X4383836Y-256082D01*
X4388866Y-254660D01*
X4393234Y-252221D01*
X4396892Y-248615D01*
X4399838Y-243789D01*
X4401972Y-237693D01*
X4403242Y-230174D01*
X4403598Y-221234D01*
X4403090Y-171704D01*
X4417060Y-168910D01*
X4417060Y-163068D01*
X4388358Y-160274D01*
X4386580Y-162306D01*
X4387342Y-189738D01*
X4387342Y-220471D01*
X4386326Y-231394D01*
X4383227Y-238607D01*
X4378147Y-242620D01*
X4371086Y-243840D01*
X4364075Y-243027D01*
X4357217Y-240639D01*
X4350461Y-236677D01*
X4343908Y-231140D01*
X4343400Y-171958D01*
X4357370Y-169164D01*
X4357370Y-163322D01*
G37*
G36*
X4884420Y-161798D02*
G01*
X4884420Y-168148D01*
X4895596Y-170688D01*
X4927346Y-255270D01*
X4935474Y-255270D01*
X4970272Y-169672D01*
X4981448Y-168148D01*
X4981448Y-161798D01*
X4934712Y-161798D01*
X4934712Y-168148D01*
X4951730Y-170180D01*
X4927092Y-235712D01*
X4904486Y-170688D01*
X4920488Y-168148D01*
X4920488Y-161798D01*
G37*
G36*
X4035806Y3359658D02*
G01*
X4029456Y3359404D01*
X4023461Y3358794D01*
X4017721Y3357727D01*
X4012234Y3356254D01*
X4007053Y3354476D01*
X4002125Y3352342D01*
X3997401Y3349904D01*
X3992981Y3347212D01*
X3988765Y3344214D01*
X3984751Y3341014D01*
X3977386Y3334004D01*
X3993896Y3316224D01*
X3997756Y3320542D01*
X4002125Y3324402D01*
X4006900Y3327755D01*
X4012031Y3330549D01*
X4017467Y3332784D01*
X4023106Y3334410D01*
X4028897Y3335426D01*
X4034790Y3335782D01*
X4039311Y3335629D01*
X4043730Y3335172D01*
X4048048Y3334410D01*
X4052315Y3333343D01*
X4056481Y3331921D01*
X4060545Y3330194D01*
X4064457Y3328060D01*
X4068216Y3325571D01*
X4071874Y3322726D01*
X4075379Y3319424D01*
X4078681Y3315766D01*
X4081830Y3311702D01*
X4084828Y3307181D01*
X4087571Y3302254D01*
X4090162Y3296869D01*
X4092549Y3291027D01*
X4094683Y3284728D01*
X4096562Y3277920D01*
X4098239Y3270605D01*
X4099661Y3262833D01*
X4100829Y3254502D01*
X4101693Y3245612D01*
X4102303Y3236264D01*
X4102608Y3226308D01*
X4098493Y3230930D01*
X4094124Y3235198D01*
X4089552Y3239160D01*
X4084777Y3242818D01*
X4079849Y3246069D01*
X4074820Y3248914D01*
X4069689Y3251403D01*
X4064457Y3253486D01*
X4059224Y3255111D01*
X4053941Y3256330D01*
X4048658Y3257042D01*
X4043426Y3257296D01*
X4037076Y3257092D01*
X4030929Y3256483D01*
X4025087Y3255467D01*
X4019499Y3254044D01*
X4014165Y3252266D01*
X4009136Y3250031D01*
X4004360Y3247390D01*
X3999890Y3244392D01*
X3995775Y3240938D01*
X3991914Y3237128D01*
X3988409Y3232912D01*
X3985209Y3228289D01*
X3982364Y3223209D01*
X3979875Y3217773D01*
X3977792Y3211982D01*
X3976014Y3205734D01*
X3974642Y3199079D01*
X3973626Y3192068D01*
X3973017Y3184601D01*
X3972814Y3176778D01*
X4000246Y3176778D01*
X4000398Y3183331D01*
X4000957Y3189579D01*
X4001820Y3195523D01*
X4003090Y3201111D01*
X4004716Y3206343D01*
X4006697Y3211220D01*
X4009085Y3215690D01*
X4011828Y3219805D01*
X4014978Y3223463D01*
X4018483Y3226663D01*
X4022394Y3229457D01*
X4026712Y3231743D01*
X4031437Y3233572D01*
X4036517Y3234893D01*
X4042054Y3235706D01*
X4047998Y3235960D01*
X4052112Y3235756D01*
X4056430Y3235147D01*
X4060850Y3234080D01*
X4065371Y3232607D01*
X4069943Y3230626D01*
X4074566Y3228187D01*
X4079240Y3225190D01*
X4083913Y3221685D01*
X4088536Y3217621D01*
X4093108Y3212998D01*
X4097680Y3207766D01*
X4102100Y3201924D01*
X4101439Y3193999D01*
X4100525Y3186379D01*
X4099407Y3179165D01*
X4098036Y3172307D01*
X4096461Y3165856D01*
X4094632Y3159709D01*
X4092549Y3154019D01*
X4090263Y3148685D01*
X4087723Y3143758D01*
X4084929Y3139186D01*
X4081932Y3135071D01*
X4078732Y3131362D01*
X4075277Y3128060D01*
X4071620Y3125165D01*
X4067708Y3122726D01*
X4063593Y3120694D01*
X4059275Y3119120D01*
X4054703Y3118002D01*
X4049928Y3117291D01*
X4044950Y3117088D01*
X4040225Y3117342D01*
X4035653Y3118205D01*
X4031284Y3119577D01*
X4027119Y3121456D01*
X4023207Y3123793D01*
X4019499Y3126638D01*
X4016095Y3129940D01*
X4012946Y3133699D01*
X4010151Y3137814D01*
X4007612Y3142386D01*
X4005427Y3147263D01*
X4003598Y3152546D01*
X4002176Y3158134D01*
X4001109Y3164078D01*
X4000449Y3170275D01*
X4000246Y3176778D01*
X3972814Y3176778D01*
X3973068Y3169513D01*
X3973779Y3162554D01*
X3974947Y3155797D01*
X3976573Y3149346D01*
X3978605Y3143199D01*
X3981043Y3137306D01*
X3983837Y3131769D01*
X3986987Y3126536D01*
X3990492Y3121660D01*
X3994302Y3117088D01*
X3998417Y3112922D01*
X4002786Y3109163D01*
X4007358Y3105759D01*
X4012234Y3102762D01*
X4017264Y3100222D01*
X4022496Y3098088D01*
X4027932Y3096412D01*
X4033469Y3095193D01*
X4039158Y3094482D01*
X4044950Y3094228D01*
X4050182Y3094380D01*
X4055262Y3094888D01*
X4060291Y3095701D01*
X4065168Y3096818D01*
X4069892Y3098292D01*
X4074464Y3100070D01*
X4078935Y3102203D01*
X4083253Y3104642D01*
X4087418Y3107385D01*
X4091432Y3110484D01*
X4095242Y3113887D01*
X4098899Y3117596D01*
X4102404Y3121660D01*
X4105706Y3126028D01*
X4108805Y3130702D01*
X4111751Y3135731D01*
X4114495Y3141065D01*
X4116984Y3146704D01*
X4119270Y3152698D01*
X4121353Y3158998D01*
X4123232Y3165602D01*
X4124858Y3172510D01*
X4126280Y3179775D01*
X4127449Y3187293D01*
X4128973Y3203397D01*
X4129379Y3211880D01*
X4129532Y3220720D01*
X4129024Y3238957D01*
X4127500Y3255721D01*
X4125061Y3271062D01*
X4123537Y3278225D01*
X4119829Y3291586D01*
X4115308Y3303574D01*
X4112818Y3309112D01*
X4107230Y3319221D01*
X4104233Y3323793D01*
X4101033Y3328111D01*
X4097731Y3332073D01*
X4094276Y3335782D01*
X4090720Y3339185D01*
X4087012Y3342335D01*
X4083202Y3345179D01*
X4075226Y3350107D01*
X4066946Y3353968D01*
X4058310Y3356762D01*
X4053890Y3357829D01*
X4044950Y3359200D01*
G37*
G36*
X3669029Y3359658D02*
G01*
X3663950Y3359505D01*
X3659022Y3358997D01*
X3654196Y3358184D01*
X3649573Y3357016D01*
X3645052Y3355492D01*
X3640683Y3353663D01*
X3636518Y3351529D01*
X3632454Y3349040D01*
X3628593Y3346196D01*
X3624884Y3343046D01*
X3621328Y3339541D01*
X3617976Y3335680D01*
X3614775Y3331514D01*
X3611778Y3326993D01*
X3608933Y3322116D01*
X3606292Y3316935D01*
X3603853Y3311398D01*
X3599535Y3299307D01*
X3596030Y3285794D01*
X3594608Y3278581D01*
X3592372Y3263036D01*
X3591560Y3254756D01*
X3590645Y3237128D01*
X3590544Y3227832D01*
X3618229Y3227832D01*
X3618636Y3245713D01*
X3619906Y3261918D01*
X3620820Y3269386D01*
X3621938Y3276447D01*
X3624732Y3289401D01*
X3626408Y3295243D01*
X3628237Y3300679D01*
X3630218Y3305759D01*
X3634689Y3314700D01*
X3637178Y3318560D01*
X3639769Y3322065D01*
X3642512Y3325215D01*
X3645408Y3327958D01*
X3648456Y3330295D01*
X3651605Y3332276D01*
X3654856Y3333902D01*
X3658209Y3335172D01*
X3661714Y3336086D01*
X3665321Y3336594D01*
X3669029Y3336798D01*
X3672789Y3336594D01*
X3676446Y3336086D01*
X3679951Y3335172D01*
X3683406Y3333902D01*
X3686708Y3332276D01*
X3689858Y3330295D01*
X3692906Y3327958D01*
X3695801Y3325215D01*
X3698595Y3322065D01*
X3701186Y3318560D01*
X3703675Y3314700D01*
X3708146Y3305759D01*
X3710127Y3300679D01*
X3711956Y3295243D01*
X3713632Y3289401D01*
X3715105Y3283102D01*
X3717493Y3269386D01*
X3719118Y3254044D01*
X3719677Y3245713D01*
X3720084Y3227832D01*
X3719677Y3209696D01*
X3718407Y3193288D01*
X3717493Y3185668D01*
X3715105Y3171748D01*
X3713632Y3165449D01*
X3711956Y3159506D01*
X3710127Y3153968D01*
X3708146Y3148838D01*
X3703675Y3139744D01*
X3701186Y3135833D01*
X3698595Y3132277D01*
X3695801Y3129127D01*
X3692906Y3126333D01*
X3689858Y3123895D01*
X3686708Y3121914D01*
X3683406Y3120237D01*
X3679951Y3118967D01*
X3676446Y3118053D01*
X3672789Y3117494D01*
X3669029Y3117342D01*
X3665321Y3117494D01*
X3661714Y3118053D01*
X3658209Y3118967D01*
X3654856Y3120237D01*
X3651605Y3121914D01*
X3648456Y3123895D01*
X3645408Y3126333D01*
X3642512Y3129127D01*
X3639769Y3132277D01*
X3637178Y3135833D01*
X3634689Y3139744D01*
X3630218Y3148838D01*
X3628237Y3153968D01*
X3626408Y3159506D01*
X3624732Y3165449D01*
X3621938Y3178505D01*
X3620820Y3185668D01*
X3619195Y3201263D01*
X3618636Y3209696D01*
X3618229Y3227832D01*
X3590544Y3227832D01*
X3590899Y3211576D01*
X3591915Y3196437D01*
X3593642Y3182315D01*
X3596030Y3169208D01*
X3599078Y3157220D01*
X3600805Y3151632D01*
X3604768Y3141167D01*
X3609289Y3131769D01*
X3614420Y3123438D01*
X3617163Y3119678D01*
X3620058Y3116173D01*
X3626256Y3109925D01*
X3629558Y3107182D01*
X3636518Y3102508D01*
X3640175Y3100578D01*
X3643934Y3098901D01*
X3647846Y3097479D01*
X3651859Y3096310D01*
X3655974Y3095396D01*
X3660241Y3094736D01*
X3664559Y3094329D01*
X3673500Y3094329D01*
X3677869Y3094736D01*
X3682085Y3095396D01*
X3686251Y3096310D01*
X3690264Y3097479D01*
X3694176Y3098901D01*
X3697986Y3100578D01*
X3701643Y3102508D01*
X3708603Y3107182D01*
X3711905Y3109925D01*
X3718102Y3116173D01*
X3720998Y3119678D01*
X3723741Y3123438D01*
X3726383Y3127502D01*
X3731158Y3136341D01*
X3735374Y3146247D01*
X3737305Y3151632D01*
X3740607Y3163112D01*
X3743299Y3175609D01*
X3745331Y3189224D01*
X3746703Y3203854D01*
X3747414Y3219551D01*
X3747414Y3237128D01*
X3746500Y3254756D01*
X3744671Y3270961D01*
X3743451Y3278581D01*
X3742029Y3285794D01*
X3740404Y3292703D01*
X3738524Y3299307D01*
X3736492Y3305505D01*
X3734257Y3311398D01*
X3731818Y3316935D01*
X3729177Y3322116D01*
X3726383Y3326993D01*
X3723335Y3331514D01*
X3720185Y3335680D01*
X3716832Y3339541D01*
X3713276Y3343046D01*
X3709568Y3346196D01*
X3705707Y3349040D01*
X3701643Y3351529D01*
X3697427Y3353663D01*
X3693058Y3355492D01*
X3688587Y3357016D01*
X3683914Y3358184D01*
X3679088Y3358997D01*
X3674110Y3359505D01*
G37*
G36*
X4244086Y3358387D02*
G01*
X4237685Y3358184D01*
X4231589Y3357575D01*
X4225747Y3356559D01*
X4220159Y3355136D01*
X4214876Y3353409D01*
X4209897Y3351276D01*
X4205224Y3348837D01*
X4200804Y3346043D01*
X4196740Y3342944D01*
X4192981Y3339541D01*
X4189577Y3335832D01*
X4186478Y3331819D01*
X4183735Y3327552D01*
X4181297Y3323082D01*
X4179265Y3318306D01*
X4177537Y3313328D01*
X4176217Y3308096D01*
X4175251Y3302711D01*
X4174693Y3297123D01*
X4174581Y3289808D01*
X4199382Y3289808D01*
X4199686Y3296259D01*
X4200702Y3302457D01*
X4202379Y3308350D01*
X4204665Y3313785D01*
X4207560Y3318814D01*
X4211066Y3323336D01*
X4215231Y3327298D01*
X4219905Y3330651D01*
X4225188Y3333394D01*
X4231030Y3335375D01*
X4237431Y3336594D01*
X4244340Y3337051D01*
X4250334Y3336696D01*
X4256024Y3335629D01*
X4261358Y3333902D01*
X4266285Y3331565D01*
X4270756Y3328619D01*
X4274769Y3325114D01*
X4278274Y3321050D01*
X4281220Y3316528D01*
X4283608Y3311550D01*
X4285335Y3306114D01*
X4286402Y3300323D01*
X4286758Y3294126D01*
X4286402Y3288385D01*
X4285437Y3283000D01*
X4283862Y3278073D01*
X4281728Y3273450D01*
X4279087Y3269132D01*
X4275988Y3265119D01*
X4272381Y3261410D01*
X4268419Y3257956D01*
X4264101Y3254705D01*
X4259427Y3251708D01*
X4249369Y3246170D01*
X4238447Y3241141D01*
X4227068Y3236468D01*
X4222750Y3240430D01*
X4218736Y3244545D01*
X4215130Y3248710D01*
X4211878Y3252927D01*
X4208983Y3257296D01*
X4206443Y3261715D01*
X4204309Y3266186D01*
X4202531Y3270758D01*
X4201160Y3275431D01*
X4200194Y3280156D01*
X4199585Y3284931D01*
X4199382Y3289808D01*
X4174581Y3289808D01*
X4174896Y3284575D01*
X4176014Y3278022D01*
X4177792Y3271672D01*
X4180078Y3265576D01*
X4182922Y3259785D01*
X4186123Y3254298D01*
X4189628Y3249117D01*
X4193336Y3244342D01*
X4197197Y3239871D01*
X4201109Y3235858D01*
X4208780Y3229102D01*
X4208780Y3227324D01*
X4200550Y3222142D01*
X4192727Y3216249D01*
X4188968Y3213049D01*
X4182008Y3205886D01*
X4178909Y3201924D01*
X4176014Y3197758D01*
X4173423Y3193288D01*
X4171137Y3188563D01*
X4169206Y3183483D01*
X4167682Y3178098D01*
X4166565Y3172409D01*
X4165854Y3166414D01*
X4165630Y3160776D01*
X4193032Y3160776D01*
X4193387Y3167278D01*
X4194505Y3173272D01*
X4196283Y3178759D01*
X4198721Y3183890D01*
X4201769Y3188563D01*
X4205325Y3192932D01*
X4209440Y3196945D01*
X4214012Y3200654D01*
X4219041Y3204159D01*
X4224426Y3207461D01*
X4230166Y3210560D01*
X4242511Y3216402D01*
X4262628Y3224784D01*
X4268012Y3221126D01*
X4273092Y3217265D01*
X4277817Y3213100D01*
X4282186Y3208680D01*
X4286148Y3204006D01*
X4289704Y3199079D01*
X4292803Y3193897D01*
X4295394Y3188462D01*
X4297426Y3182823D01*
X4298950Y3176981D01*
X4299915Y3170885D01*
X4300220Y3164586D01*
X4299915Y3159404D01*
X4299102Y3154476D01*
X4297781Y3149701D01*
X4296003Y3145231D01*
X4293717Y3140964D01*
X4290974Y3136950D01*
X4287824Y3133242D01*
X4284268Y3129838D01*
X4280357Y3126790D01*
X4276090Y3124047D01*
X4271467Y3121710D01*
X4266590Y3119729D01*
X4261358Y3118154D01*
X4255922Y3116986D01*
X4250232Y3116326D01*
X4244340Y3116072D01*
X4236872Y3116427D01*
X4229862Y3117596D01*
X4223359Y3119424D01*
X4217365Y3121914D01*
X4211980Y3125012D01*
X4207154Y3128721D01*
X4202988Y3132937D01*
X4199483Y3137662D01*
X4196740Y3142843D01*
X4194708Y3148482D01*
X4193438Y3154426D01*
X4193032Y3160776D01*
X4165630Y3160776D01*
X4165854Y3154527D01*
X4166514Y3149193D01*
X4167682Y3144012D01*
X4169308Y3139033D01*
X4171340Y3134207D01*
X4173778Y3129534D01*
X4176623Y3125114D01*
X4179874Y3120948D01*
X4183532Y3116986D01*
X4187494Y3113278D01*
X4191863Y3109874D01*
X4196537Y3106775D01*
X4201566Y3103981D01*
X4206900Y3101492D01*
X4212539Y3099308D01*
X4218432Y3097530D01*
X4224680Y3096107D01*
X4231132Y3095091D01*
X4237888Y3094431D01*
X4244848Y3094228D01*
X4251756Y3094431D01*
X4258462Y3095040D01*
X4264964Y3096107D01*
X4271213Y3097530D01*
X4277207Y3099308D01*
X4282948Y3101492D01*
X4288383Y3103981D01*
X4293565Y3106877D01*
X4298391Y3110026D01*
X4302861Y3113532D01*
X4307027Y3117291D01*
X4310786Y3121355D01*
X4314190Y3125724D01*
X4317187Y3130296D01*
X4319778Y3135172D01*
X4321911Y3140202D01*
X4323638Y3145536D01*
X4324858Y3151022D01*
X4325620Y3156712D01*
X4325874Y3162554D01*
X4325569Y3168904D01*
X4324756Y3175000D01*
X4323486Y3180892D01*
X4321708Y3186480D01*
X4319473Y3191865D01*
X4316933Y3196945D01*
X4313986Y3201822D01*
X4310735Y3206445D01*
X4307230Y3210763D01*
X4303471Y3214878D01*
X4299559Y3218688D01*
X4291177Y3225596D01*
X4286859Y3228644D01*
X4278122Y3233928D01*
X4278122Y3235198D01*
X4282744Y3238500D01*
X4287215Y3242106D01*
X4291533Y3245967D01*
X4295546Y3250133D01*
X4299305Y3254603D01*
X4302709Y3259328D01*
X4305706Y3264357D01*
X4308246Y3269691D01*
X4310329Y3275329D01*
X4311853Y3281273D01*
X4312818Y3287522D01*
X4313174Y3294126D01*
X4312920Y3299764D01*
X4312310Y3305251D01*
X4311192Y3310483D01*
X4309719Y3315512D01*
X4307890Y3320338D01*
X4305655Y3324910D01*
X4303064Y3329228D01*
X4300118Y3333292D01*
X4296867Y3337102D01*
X4293311Y3340608D01*
X4289450Y3343859D01*
X4285284Y3346805D01*
X4280916Y3349447D01*
X4276242Y3351733D01*
X4271365Y3353714D01*
X4266285Y3355390D01*
X4261002Y3356660D01*
X4255516Y3357626D01*
X4249877Y3358184D01*
G37*
G36*
X4417060Y3355086D02*
G01*
X4417060Y3122930D01*
X4364736Y3122930D01*
X4364736Y3098800D01*
X4502404Y3098800D01*
X4502404Y3122930D01*
X4445000Y3122930D01*
X4445000Y3319018D01*
X4490974Y3319018D01*
X4490974Y3337560D01*
X4482795Y3339084D01*
X4475175Y3340760D01*
X4468063Y3342640D01*
X4461459Y3344672D01*
X4455261Y3346958D01*
X4449521Y3349447D01*
X4444187Y3352139D01*
X4439158Y3355086D01*
G37*
G36*
X3796537Y3355086D02*
G01*
X3796537Y3330448D01*
X3893820Y3330448D01*
X3900678Y3252724D01*
X3891686Y3257194D01*
X3887114Y3259074D01*
X3882339Y3260648D01*
X3877411Y3261918D01*
X3872179Y3262884D01*
X3866692Y3263442D01*
X3860800Y3263646D01*
X3855516Y3263493D01*
X3850386Y3263087D01*
X3845306Y3262426D01*
X3840378Y3261512D01*
X3835552Y3260293D01*
X3830878Y3258820D01*
X3826357Y3257042D01*
X3821988Y3255010D01*
X3817823Y3252673D01*
X3813810Y3250082D01*
X3810000Y3247186D01*
X3806393Y3243986D01*
X3803040Y3240481D01*
X3799890Y3236722D01*
X3796995Y3232607D01*
X3794353Y3228238D01*
X3791965Y3223514D01*
X3789883Y3218535D01*
X3788105Y3213201D01*
X3786581Y3207562D01*
X3785412Y3201619D01*
X3784549Y3195370D01*
X3783990Y3188766D01*
X3783837Y3181858D01*
X3784041Y3175000D01*
X3784650Y3168396D01*
X3785666Y3162046D01*
X3787038Y3155950D01*
X3788765Y3150158D01*
X3790848Y3144570D01*
X3793236Y3139287D01*
X3795928Y3134309D01*
X3798925Y3129584D01*
X3802176Y3125114D01*
X3805682Y3120948D01*
X3809441Y3117088D01*
X3813403Y3113481D01*
X3817620Y3110230D01*
X3821988Y3107232D01*
X3826510Y3104540D01*
X3831183Y3102152D01*
X3836009Y3100070D01*
X3840937Y3098292D01*
X3846017Y3096818D01*
X3851148Y3095701D01*
X3856329Y3094888D01*
X3861612Y3094380D01*
X3866896Y3094228D01*
X3874160Y3094431D01*
X3881120Y3094990D01*
X3887673Y3095904D01*
X3893921Y3097123D01*
X3899814Y3098647D01*
X3905402Y3100425D01*
X3910736Y3102508D01*
X3915765Y3104743D01*
X3925011Y3109874D01*
X3929329Y3112719D01*
X3937203Y3118713D01*
X3944365Y3125012D01*
X3947668Y3128264D01*
X3933190Y3147060D01*
X3925519Y3139694D01*
X3921353Y3136188D01*
X3916934Y3132886D01*
X3912209Y3129788D01*
X3907180Y3126943D01*
X3901795Y3124454D01*
X3896106Y3122269D01*
X3890010Y3120491D01*
X3883507Y3119221D01*
X3876548Y3118358D01*
X3869182Y3118104D01*
X3863441Y3118358D01*
X3857853Y3119221D01*
X3852468Y3120593D01*
X3847287Y3122523D01*
X3842359Y3124911D01*
X3837736Y3127806D01*
X3833368Y3131210D01*
X3829354Y3135071D01*
X3825697Y3139338D01*
X3822446Y3144062D01*
X3819601Y3149193D01*
X3817264Y3154730D01*
X3815334Y3160674D01*
X3813962Y3166973D01*
X3813098Y3173577D01*
X3812794Y3180588D01*
X3813048Y3187598D01*
X3813810Y3194202D01*
X3815029Y3200450D01*
X3816705Y3206292D01*
X3818890Y3211728D01*
X3821429Y3216706D01*
X3824478Y3221278D01*
X3827881Y3225444D01*
X3831691Y3229152D01*
X3835857Y3232353D01*
X3840378Y3235147D01*
X3845255Y3237433D01*
X3850436Y3239211D01*
X3855974Y3240481D01*
X3861815Y3241294D01*
X3867912Y3241548D01*
X3874211Y3241294D01*
X3880002Y3240532D01*
X3885488Y3239262D01*
X3890670Y3237534D01*
X3895750Y3235350D01*
X3900779Y3232759D01*
X3911346Y3226308D01*
X3927094Y3235960D01*
X3918965Y3355086D01*
G37*
D10*
X1809173Y4800137D02*
G01*
X1809173Y4633884D01*
X1892300Y4717011D02*
G01*
X1726046Y4717011D01*
X1892300Y5212311D02*
G01*
X1726046Y5212311D01*
D11*
X1028700Y2121938D02*
G01*
X1028700Y2012835D01*
X955964Y2121938D02*
G01*
X955964Y2012835D01*
X1028700Y2069985D02*
G01*
X955964Y2069985D01*
X921674Y2101156D02*
G01*
X911283Y2106353D01*
X895695Y2121938D01*
X895695Y2012835D01*
X7137400Y2134638D02*
G01*
X7137400Y2025535D01*
X7064664Y2134638D02*
G01*
X7064664Y2025535D01*
X7137400Y2082685D02*
G01*
X7064664Y2082685D01*
X7025177Y2108662D02*
G01*
X7025177Y2113856D01*
X7019983Y2124247D01*
X7014786Y2129444D01*
X7004395Y2134638D01*
X6983615Y2134638D01*
X6973224Y2129444D01*
X6968027Y2124247D01*
X6962833Y2113856D01*
X6962833Y2103465D01*
X6968027Y2093074D01*
X6978418Y2077488D01*
X7030374Y2025535D01*
X6957636Y2025535D01*
X7112000Y5436638D02*
G01*
X7112000Y5327535D01*
X7039264Y5436638D02*
G01*
X7039264Y5327535D01*
X7112000Y5384685D02*
G01*
X7039264Y5384685D01*
X6994583Y5436638D02*
G01*
X6937433Y5436638D01*
X6968604Y5395074D01*
X6953018Y5395074D01*
X6942627Y5389879D01*
X6937433Y5384685D01*
X6932236Y5369097D01*
X6932236Y5358706D01*
X6937433Y5343121D01*
X6947824Y5332729D01*
X6963409Y5327535D01*
X6978995Y5327535D01*
X6994583Y5332729D01*
X6999777Y5337924D01*
X7004974Y5348315D01*
X1384300Y5652538D02*
G01*
X1384300Y5543435D01*
X1384300Y5652538D02*
G01*
X1337541Y5652538D01*
X1321955Y5647344D01*
X1316758Y5642147D01*
X1311564Y5631756D01*
X1311564Y5621365D01*
X1316758Y5610974D01*
X1321955Y5605779D01*
X1337541Y5600585D01*
X1384300Y5600585D02*
G01*
X1337541Y5600585D01*
X1321955Y5595388D01*
X1316758Y5590194D01*
X1311564Y5579803D01*
X1311564Y5564215D01*
X1316758Y5553824D01*
X1321955Y5548629D01*
X1337541Y5543435D01*
X1384300Y5543435D01*
X1235710Y5652538D02*
G01*
X1277274Y5543435D01*
X1235710Y5652538D02*
G01*
X1194145Y5543435D01*
X1261686Y5579803D02*
G01*
X1209733Y5579803D01*
X1123487Y5652538D02*
G01*
X1123487Y5543435D01*
X1159855Y5652538D02*
G01*
X1087120Y5652538D01*
X779526Y5166360D02*
G01*
X783081Y5173218D01*
X793495Y5183631D01*
X720597Y5183631D01*
X2378364Y5598853D02*
G01*
X2388755Y5609244D01*
X2404341Y5614438D01*
X2425123Y5614438D01*
X2440708Y5609244D01*
X2451100Y5598853D01*
X2451100Y5588462D01*
X2445905Y5578071D01*
X2440708Y5572874D01*
X2430317Y5567679D01*
X2399144Y5557288D01*
X2388755Y5552094D01*
X2383558Y5546897D01*
X2378364Y5536506D01*
X2378364Y5520921D01*
X2388755Y5510529D01*
X2404341Y5505335D01*
X2425123Y5505335D01*
X2440708Y5510529D01*
X2451100Y5520921D01*
X2344074Y5614438D02*
G01*
X2318095Y5505335D01*
X2292118Y5614438D02*
G01*
X2318095Y5505335D01*
X2292118Y5614438D02*
G01*
X2266142Y5505335D01*
X2240165Y5614438D02*
G01*
X2266142Y5505335D01*
X2200678Y5588462D02*
G01*
X2200678Y5593656D01*
X2195484Y5604047D01*
X2190287Y5609244D01*
X2179896Y5614438D01*
X2159114Y5614438D01*
X2148725Y5609244D01*
X2143528Y5604047D01*
X2138334Y5593656D01*
X2138334Y5583265D01*
X2143528Y5572874D01*
X2153920Y5557288D01*
X2205875Y5505335D01*
X2133137Y5505335D01*
X4305300Y5665238D02*
G01*
X4305300Y5556135D01*
X4305300Y5665238D02*
G01*
X4258541Y5665238D01*
X4242955Y5660044D01*
X4237758Y5654847D01*
X4232564Y5644456D01*
X4232564Y5634065D01*
X4237758Y5623674D01*
X4242955Y5618479D01*
X4258541Y5613285D01*
X4305300Y5613285D01*
X4268932Y5613285D02*
G01*
X4232564Y5556135D01*
X4198274Y5665238D02*
G01*
X4198274Y5556135D01*
X4198274Y5665238D02*
G01*
X4130733Y5665238D01*
X4198274Y5613285D02*
G01*
X4156709Y5613285D01*
X4198274Y5556135D02*
G01*
X4130733Y5556135D01*
X4023705Y5649653D02*
G01*
X4034096Y5660044D01*
X4049684Y5665238D01*
X4070464Y5665238D01*
X4086052Y5660044D01*
X4096443Y5649653D01*
X4096443Y5639262D01*
X4091246Y5628871D01*
X4086052Y5623674D01*
X4075661Y5618479D01*
X4044487Y5608088D01*
X4034096Y5602894D01*
X4028902Y5597697D01*
X4023705Y5587306D01*
X4023705Y5571721D01*
X4034096Y5561329D01*
X4049684Y5556135D01*
X4070464Y5556135D01*
X4086052Y5561329D01*
X4096443Y5571721D01*
X3989415Y5665238D02*
G01*
X3989415Y5556135D01*
X3989415Y5665238D02*
G01*
X3921874Y5665238D01*
X3989415Y5613285D02*
G01*
X3947853Y5613285D01*
X3989415Y5556135D02*
G01*
X3921874Y5556135D01*
X3851216Y5665238D02*
G01*
X3851216Y5556135D01*
X3887584Y5665238D02*
G01*
X3814848Y5665238D01*
X4165600Y3925315D02*
G01*
X4165600Y3816350D01*
X4165600Y3925315D02*
G01*
X4118863Y3925315D01*
X4103370Y3920236D01*
X4098036Y3914902D01*
X4092956Y3904487D01*
X4092956Y3894073D01*
X4098036Y3883660D01*
X4103370Y3878579D01*
X4118863Y3873500D01*
X4165600Y3873500D02*
G01*
X4118863Y3873500D01*
X4103370Y3868165D01*
X4098036Y3863086D01*
X4092956Y3852671D01*
X4092956Y3836923D01*
X4098036Y3826510D01*
X4103370Y3821429D01*
X4118863Y3816350D01*
X4165600Y3816350D01*
X4022090Y3925315D02*
G01*
X4022090Y3816350D01*
X4058665Y3925315D02*
G01*
X3985768Y3925315D01*
X3951477Y3904487D02*
G01*
X3941063Y3909821D01*
X3925570Y3925315D01*
X3925570Y3816350D01*
G36*
X736600Y3251200D02*
G01*
X736600Y3200400D01*
X939800Y3200400D01*
X939800Y3251200D01*
G37*
G36*
X812800Y3327400D02*
G01*
X812800Y3124200D01*
X863600Y3124200D01*
X863600Y3327400D01*
G37*
D12*
X1028700Y1074000D02*
G01*
X1028700Y1148999D01*
X1403700Y1524000D02*
G01*
X1478699Y1524000D01*
X578700Y1524000D02*
G01*
X653699Y1524000D01*
X1028700Y1899000D02*
G01*
X1028700Y1973999D01*
X7137400Y1086700D02*
G01*
X7137400Y1161699D01*
X7512400Y1536700D02*
G01*
X7587399Y1536700D01*
X6687400Y1536700D02*
G01*
X6762399Y1536700D01*
X7137400Y1911700D02*
G01*
X7137400Y1986699D01*
X7112000Y4388700D02*
G01*
X7112000Y4463699D01*
X7487000Y4838700D02*
G01*
X7561999Y4838700D01*
X6662000Y4838700D02*
G01*
X6736999Y4838700D01*
X7112000Y5213700D02*
G01*
X7112000Y5288699D01*
D13*
X1653539Y4465320D02*
G01*
X1653539Y5466079D01*
X1653539Y5466079D02*
G01*
X1480820Y5466079D01*
X1480820Y5466079D02*
G01*
X975360Y5466079D01*
X975360Y5466079D02*
G01*
X901700Y5466079D01*
X901700Y5466079D02*
G01*
X901700Y4465320D01*
X901700Y4465320D02*
G01*
X975360Y4465320D01*
X975360Y4465320D02*
G01*
X1480820Y4465320D01*
X1480820Y4465320D02*
G01*
X1493520Y4465320D01*
X1493520Y4465320D02*
G01*
X1551939Y4465320D01*
X1551939Y4465320D02*
G01*
X1653539Y4465320D01*
X1551939Y4465320D02*
G01*
X1567179Y4406900D01*
X1567179Y4406900D02*
G01*
X1478279Y4406900D01*
X1478279Y4406900D02*
G01*
X1493520Y4465320D01*
X1480820Y4465320D02*
G01*
X1480820Y5466079D01*
X975360Y4465320D02*
G01*
X975360Y5466079D01*
X3836288Y4894300D02*
G01*
X4317111Y4894300D01*
X4376699Y5079608D02*
G01*
X4376699Y5308991D01*
X4317111Y5494299D02*
G01*
X3836288Y5494299D01*
X3776700Y5308991D02*
G01*
X3776700Y5079608D01*
X4701303Y3525791D02*
G01*
X3401306Y3525791D01*
X3401306Y2925792D01*
X4701303Y2925792D01*
X4701303Y3525791D01*
X7365992Y3581392D02*
G01*
X7365992Y2819392D01*
X7200892Y3568692D01*
X7200892Y2895592D01*
X7023092Y3505192D01*
X7023092Y2971792D01*
X6845292Y3428992D01*
X6845292Y3047992D01*
X6654792Y3365492D01*
X6654792Y3136892D01*
X266692Y4279892D02*
G01*
X266692Y2171692D01*
X7835892Y2171692D01*
X7835892Y4279892D01*
X266692Y4279892D01*
X3401306Y3375779D02*
G01*
X3201306Y3375779D01*
X3201306Y3075779D01*
X3401306Y3075779D01*
X3401306Y3375779D01*
D12*
G75*
G01
X1403706Y1524000D02*
G03X1403706Y1524000I-375006J0D01*
G75*
G01
X7512406Y1536700D02*
G03X7512406Y1536700I-375006J0D01*
G75*
G01
X7487006Y4838700D02*
G03X7487006Y4838700I-375006J0D01*
D13*
G75*
G01
X1567180Y4716780D02*
G03X1567180Y4716780I-45720J0D01*
G75*
G01
X1567180Y5214620D02*
G03X1567180Y5214620I-45720J0D01*
G75*
G01
X2552700Y5194300D02*
G03X2552700Y5194300I-266700J0D01*
G75*
G01
X4266692Y5364302D02*
G03X4266692Y5364302I-29997J0D01*
G75*
G01
X4256710Y5194300D02*
G03X4256710Y5194300I-180010J0D01*
G75*
G01
X4266717Y5024298D02*
G03X4266717Y5024298I-30023J0D01*
G75*
G01
X3946703Y5024298D02*
G03X3946703Y5024298I-29997J0D01*
G75*
G01
X3946703Y5364302D02*
G03X3946703Y5364302I-29997J0D01*
M02*
